<svg xmlns="http://www.w3.org/2000/svg" version="1.1" width="600px" height="600px" xlink="http://www.w3.org/1999/xlink" style="overflow: hidden !important;"><g id="svga-group-wrapper" transform="scale(3 3)"><g id="svga-group-backs-single"><path id="SvgjsPath4103" d="M225 225H-25V-25h250V225z" fill="#ecf0f1" stroke-width="none" opacity="1" class="FsrPXEMD_0"></path><path id="SvgjsPath4104" d="M30.816 56.624l3.375 1.049 -2.886 2.041 0.045 3.535 -2.833-2.114 -3.347 1.136 1.134-3.348 -2.114-2.833 3.535 0.044 2.041-2.886L30.816 56.624zM40.051 33.259l-1.586 5.428 -5.372 1.771 4.672 3.187L37.79 49.3l4.475-3.458 5.385 1.725 -1.905-5.325 3.303-4.588 -5.653 0.168L40.051 33.259zM9.358 99.38l-2.422 3.986 -4.711 0.273 3.104 3.526 -1.17 4.508 4.344-1.807 3.987 2.514 -0.421-4.643 3.633-2.954 -4.602-1.063L9.358 99.38zM11.271 71.054l0.168 3.531 -2.814 2.14 3.41 0.932 1.166 3.337 1.939-2.955 3.534-0.077 -2.21-2.759 1.019-3.384 -3.306 1.25L11.271 71.054zM5.396 51.958l3.615-2.959 0.182 4.63 3.969 2.479L8.755 57.71 7.592 62.2l-2.905-3.641L0 58.856l2.612-3.853 -1.735-4.307L5.396 51.958zM5.222 135.998l2.556-1.095 -0.621 2.515 1.908 1.88 -2.799 0.256 -1.377 2.256 -1.111-2.357 -2.758-0.484 2.115-1.714 -0.329-2.556L5.222 135.998zM20.532 155.007l2.81 0.867 -2.402 1.688 0.038 2.922 -2.358-1.748 -2.785 0.939 0.943-2.768 -1.76-2.342 2.942 0.037 1.699-2.387L20.532 155.007zM31.034 83.795l4.647 0.739 -3.406 3.215 0.738 4.622 -4.139-2.236 -4.191 2.116 0.849-4.598 -3.329-3.312 4.666-0.606 2.132-4.164L31.034 83.795zM22.119 29.902l5.203 1.198 -4.104 3.329 0.474 5.232 -4.507-2.832 -4.909 2.035 1.322-5.08 -3.509-3.974 5.325-0.307 2.738-4.491L22.119 29.902zM26.758 136.314l4.432-0.083 -2.633 3.463 1.437 4.064 -4.2-1.354L22.251 145l0.04-4.301 -3.627-2.46 4.226-1.304 1.298-4.115L26.758 136.314zM56.458 148.571l4.296-0.914 -1.894 3.861 2.184 3.68 -4.349-0.525 -2.947 3.188 -0.792-4.187 -4.005-1.709 3.86-2.063 0.468-4.242L56.458 148.571zM41.369 162.985l5.203 1.198 -4.104 3.329 0.474 5.232 -4.507-2.832 -4.909 2.035 1.322-5.08 -3.509-3.975 5.325-0.307 2.738-4.491L41.369 162.985zM30.869 110.835l5.203 1.199 -4.104 3.328 0.474 5.232 -4.507-2.832 -4.909 2.035 1.322-5.08 -3.509-3.974 5.325-0.308 2.738-4.49L30.869 110.835zM45.782 133.007l2.81 0.867 -2.402 1.688 0.038 2.922 -2.358-1.748 -2.785 0.939 0.943-2.768 -1.76-2.342 2.942 0.037 1.699-2.387L45.782 133.007zM39.066 13.124l3.375 1.049 -2.886 2.041 0.045 3.535 -2.833-2.114 -3.347 1.136 1.134-3.348 -2.114-2.833 3.535 0.044 2.041-2.886L39.066 13.124zM60.934 3.517L65.4 3.387l-2.609 3.538 1.505 4.106 -4.255-1.331 -3.536 2.667 -0.019-4.36L52.795 5.55l4.244-1.365L58.293 0 60.934 3.517zM65.782 172.007l2.81 0.867 -2.402 1.688 0.038 2.922 -2.358-1.748 -2.785 0.939 0.943-2.768 -1.76-2.342 2.942 0.037 1.699-2.387L65.782 172.007zM49.908 108.489l4.072-0.469 -2.299 3.158 1.465 3.299 -3.91-0.764 -3.165 2.505 -0.116-3.63 -3.422-1.752 3.84-1.479 1.047-3.586L49.908 108.489zM169.184 120.86l-3.376-1.049 2.886-2.041 -0.045-3.535 2.833 2.113 3.347-1.135 -1.134 3.348 2.114 2.832 -3.535-0.045 -2.04 2.887L169.184 120.86zM159.948 144.224l1.587-5.428 5.371-1.771 -4.672-3.187 -0.024-5.655 -4.475 3.458 -5.386-1.725 1.905 5.325 -3.303 4.589 5.652-0.168L159.948 144.224zM190.642 78.103l2.422-3.986 4.712-0.273 -3.104-3.526 1.17-4.508 -4.345 1.807 -3.987-2.514 0.421 4.643 -3.633 2.954 4.602 1.063L190.642 78.103zM188.729 106.43l-0.168-3.531 2.814-2.14 -3.409-0.932L186.8 96.49l-1.939 2.955 -3.534 0.077 2.211 2.759 -1.02 3.384 3.307-1.25L188.729 106.43zM194.604 125.525l-3.615 2.959 -0.182-4.63 -3.969-2.479 4.406-1.602 1.163-4.49 2.905 3.642 4.688-0.298 -2.612 3.853 1.735 4.307L194.604 125.525zM194.778 41.485l-2.556 1.095 0.62-2.515 -1.907-1.88 2.799-0.256 1.377-2.256 1.11 2.357 2.759 0.484 -2.115 1.714 0.329 2.556L194.778 41.485zM179.468 22.477l-2.811-0.867 2.402-1.688L179.022 17l2.358 1.748 2.784-0.939 -0.943 2.768 1.76 2.342 -2.942-0.037 -1.699 2.387L179.468 22.477zM168.966 93.688l-4.647-0.739 3.406-3.215 -0.738-4.622 4.139 2.236 4.191-2.116 -0.85 4.598 3.329 3.312 -4.665 0.606 -2.132 4.164L168.966 93.688zM177.881 147.581l-5.203-1.198 4.104-3.329 -0.474-5.232 4.507 2.832 4.909-2.035 -1.322 5.08 3.509 3.975 -5.325 0.307 -2.737 4.491L177.881 147.581zM173.241 41.169l-4.432 0.083 2.634-3.463 -1.437-4.064 4.2 1.354 3.541-2.595 -0.039 4.301 3.627 2.46 -4.226 1.304 -1.299 4.115L173.241 41.169zM151.968 35.013l-4.296 0.914 1.894-3.861 -2.185-3.68 4.349 0.525 2.947-3.188 0.792 4.187 4.006 1.709 -3.86 2.063 -0.469 4.242L151.968 35.013zM158.631 14.498l-5.203-1.198 4.104-3.329 -0.474-5.232 4.507 2.832 4.909-2.035 -1.322 5.08 3.509 3.975 -5.325 0.307 -2.737 4.491L158.631 14.498zM169.131 66.648l-5.203-1.199 4.104-3.328 -0.474-5.232 4.507 2.832 4.909-2.035 -1.322 5.08 3.509 3.974 -5.325 0.308 -2.737 4.49L169.131 66.648zM131.544 149.7l-2.81-0.867 2.402-1.688 -0.038-2.922 2.358 1.748 2.784-0.939 -0.943 2.768 1.76 2.342 -2.942-0.037 -1.699 2.387L131.544 149.7zM160.934 164.36l-3.376-1.049 2.886-2.041 -0.045-3.535 2.833 2.113 3.347-1.135 -1.134 3.348 2.114 2.832 -3.535-0.045 -2.04 2.887L160.934 164.36zM139.065 173.967l-4.466 0.13 2.609-3.539 -1.505-4.105 4.255 1.33 3.535-2.667 0.019 4.36 3.691 2.457 -4.243 1.365 -1.254 4.186L139.065 173.967zM134.218 5.477l-2.811-0.867 2.402-1.688L133.772 0l2.358 1.748 2.784-0.939 -0.943 2.768 1.76 2.342 -2.942-0.037 -1.699 2.387L134.218 5.477zM151.776 111.519l-4.072 0.469 2.299-3.158 -1.465-3.299 3.91 0.764 3.165-2.505 0.115 3.63 3.423 1.752 -3.84 1.479 -1.048 3.586L151.776 111.519z" fill="#ffffff" stroke-width="none" opacity="1" class="FsrPXEMD_1"></path></g><g id="svga-group-subwrapper"><g id="svga-group-hair-back"><path id="SvgjsPath4087" d="M19.273 278.474c-2.987 0-5.493-0.846-7.277-2.449 0.26 0.058 0.551 0.086 0.869 0.086 3.453 0 9.151-3.228 11.324-7.389 0.217-2.067-0.396-4.376-1.812-6.896 -3.315-5.838-8.82-7.466-14.648-9.189 -4.849-1.434-9.862-2.916-13.504-7.058 -9.954-10.596-9.202-23.263 2.233-37.651 -0.092-0.686-0.144-1.071-0.196-1.463 -3.866-7.445-4.552-14.183-2.053-20.081 3.215-7.589 11.649-13.6 24.39-17.383l0.078-0.022 -0.006-0.081c-0.188-2.399 0.79-5.015 2.684-7.174 2.575-2.938 6.422-4.685 10.832-4.919l0.178-0.009 -0.101-0.147c-2.886-4.215-3.457-8.688-1.566-12.274 1.472-2.79 4.241-4.593 7.055-4.593 1.668 0 3.204 0.638 4.439 1.846 0.103 0.064 0.497 0.535 0.59 0.659 1.017 1.34 1.395 2.912 1.182 4.919 -0.374-3.863-2.871-5.271-5.219-5.271 -2.852 0-5.581 1.867-6.489 4.44 -0.638 1.809-0.888 5.502 4.603 9.93l0.146-0.134c-1.75-2.598-2.347-5.018-1.775-7.19 0.577-2.192 2.337-4.074 5.237-5.6 -2.102 3.184-0.972 7.345 1.311 9.902 2.368 2.658 7.015 4.122 13.083 4.121 9.51 0 19.561-3.474 22.882-7.908 2.887-3.866 2.608-10.002 2.232-12.271 3.171 3.053 4.943 8.707 4.871 15.585 -0.113 10.844-5.03 26.601-18.489 38.301 -5.133 4.465-10.948 8.174-16.572 11.762 -1.728 1.103-3.456 2.205-5.167 3.329 -21.479 14.074-16.134 26.021-10.476 38.668 0.681 1.521 1.385 3.096 2.029 4.654 5.482 7.098 4.38 13.164 2.493 17.009C34.99 274.007 25.921 278.474 19.273 278.474L19.273 278.474z" fill="#6b4e40" stroke-width="none" opacity="1" stroke="none" class="FsrPXEMD_2"></path><path id="SvgjsPath4088" d="M12.475 191.111c0.852-1.361 2.349-3.862 4.827-6.614 12.467-14.117 39.351-14.11 51.802-22.074 4.492-2.792 13.153-11.878 5.33-3.896 -7.607 7.618-16.997 10.345-36.132 15.341C18.656 178.969 14.58 188.9 12.45 191.035 12.463 190.377 12.466 190.111 12.475 191.111zM42.065 186.044c18.531-10.538 27.64-4.63 40.413-28.171 1.319-2.504 2.089-4.04 1.927-3.741 -14.254 28.508-25.318 17.027-51.257 37.2 -1.104 0.854-4.972 3.886-4.727 5.26C28.421 196.592 27.396 194.433 42.065 186.044zM60.336 161.681c8.71-1.954 14.749-6.304 13.749-5.729 -20.646 10.732-50.717-0.626-52.951 17.25C24.177 159.171 41.118 166.536 60.336 161.681zM14.671 242.974c1.967 2.627 5.455 6.543 7.947 11.192 1.007 2.038 1.655 3.269 1.536 3.021 -0.15-0.233-0.734-1.797-1.758-3.979 -5.519-10.923-26.096-32.407-9.883-48.119C0.955 215.395 5.45 230.647 14.671 242.974zM37.148 153.208c1.112 1.929 3.154 3.298 4.97 3.814 3.627 1.172-5.838-1.214-4.942-7.852 0.154-1.678 0.952-3.258 1.145-3.711C36.638 148.252 35.984 150.327 37.148 153.208z" fill="#5c3d2e" stroke-width="none" opacity="1" stroke="none" class="FsrPXEMD_3"></path><path id="SvgjsPath4089" d="M24.172 184.311c-14.06 5.821-44.699 43.764-21.156 59.208l1.699 1.207c16.558 9.814 13.79 8.106 20.289 15.289 -4.825-5.396-11.641-8.378-18.119-11.143 -2.706-1.175-5.711-2.516-8.177-4.419 -5.273-3.865-7.719-8.127-8.96-13.253C-14.371 216.803 9.198 189.661 24.172 184.311zM18.99 212.724c-2.208 7.286-2.518 14.654 0.167 22.124 1.798 3.846-0.713-7.868-0.577-9.888 0.646-9.091 4.533-16.651 10.343-23.616 8.475-11.28 20.252-14.138 34.692-21.842C45.168 187.34 26.252 189.657 18.99 212.724zM71.565 158.462c-2.912 1.841-5.708 3.029-5.574 2.941 -20.028 7.146-49.126 4.403-56.009 31.838 0 0 0.205-0.613 0.567-1.694 0.548-1.896 2.616-6.506 5.634-9.749 8.07-8.863 21.092-10.477 29.116-12.297 4.584-1.002 10.72-2.457 15.161-3.974 11.71-4.021 17.587-10.996 19.145-15.144 0.121-0.286 0.216-0.501 0.292-0.666C79.197 151.03 76.515 155.457 71.565 158.462zM79.896 149.718C80.146 149.248 80.141 149.182 79.896 149.718L79.896 149.718zM47.45 160.992c9.354 0.252 18.606-0.313 27.512-6.406 5.241-3.517 7.248-8.298 6.702-13.057 -0.076-0.789-0.115-1.153-0.104-0.972 -0.027 0.342 0.266 2.631-0.726 5.634 -0.648 1.879-1.709 3.466-3.079 4.816 0.37-0.723 0.602-1.56 0.62-2.501 -0.194 0.341-0.401 0.674-0.636 0.988 -3.322 4.435-13.373 7.908-22.882 7.908 -6.068 0.001-10.714-1.463-13.083-4.121 -2.282-2.558-3.413-6.719-1.311-9.902 -0.345 0.182-0.672 0.369-0.985 0.561 -0.983 3.555-1.464 6.757 0.521 9.06 2.653 3.077 6.233 4.825 10.177 5.602 -5.993 0.279-11.489 0.254-15.006 0.646 -14.071 1.387-14.16 8.158-14.964 10.815C23.55 160.304 29.329 160.377 47.45 160.992zM31 146c1.601-4.003 5.766-5.438 9.929-5.34 -0.963-0.574-2.038-0.879-3.179-0.879 -2.814 0-5.583 1.803-7.055 4.593 -1.89 3.586-1.319 8.06 1.566 12.274l0.101 0.147 -0.178 0.009c-4.41 0.234-8.257 1.981-10.832 4.919 -1.894 2.159-2.872 4.774-2.684 7.174l0.006 0.081 -0.078 0.022c-12.741 3.783-21.175 9.794-24.39 17.383 -2.143 5.058-1.937 10.734 0.602 16.943 -2.575-15.776 6.479-28.02 24.293-32.77 -0.505-1.557 1.681-5.714 3.897-8.558 1.298-1.666 7-6 12-4C32 155 30 151 31 146z" fill="#7a6155" stroke-width="none" opacity="1" stroke="none" class="FsrPXEMD_4"></path><path id="SvgjsPath4090" d="M79.819 136.945c0.458 2.279 0.748 8.596-2.16 12.49 -5.553 7.413-29.061 11.355-35.81 3.78 -2.465-2.763-3.387-7.021-1.07-10.11 -6.617 3.309-7.218 8.135-3.86 13.12 -14.194-11.442 6.99-20.876 6.99-7.99 0.402-2.144 0.317-4.209-1.02-5.97 0-0.011-0.01-0.03-0.03-0.04 -0.071-0.095-0.506-0.624-0.6-0.67 -6.176-6.035-18.103 3.432-10.08 15.149 -8.822 0.469-14.027 6.88-13.61 12.2 -20.399 6.058-32.254 18.669-22.41 37.55 0.053 0.4 0.104 0.791 0.22 1.41 -10.107 12.719-13.392 25.898-2.23 37.78 7.915 8.998 22.008 5.433 28.14 16.229 1.13 2.011 2.05 4.44 1.81 6.801 -2.576 4.933-9.791 8.206-12.48 7.13 9.597 9.559 39.416-7.206 24.64-26.32 -5.823-14.095-15.662-27.427 8.41-43.2 7.38-4.85 15.06-9.28 21.75-15.1C86.719 173.539 88.938 145.213 79.819 136.945zM18.599 169.165c0.025 0.389 0.171 1.045 0.26 1.38 -16.569 7.271-24.051 21.227-22.81 34.94C-12.354 187.513-0.388 175.129 18.599 169.165zM-3.331 207.405c0.02 0.021 0.03 0.04 0.04 0.061 0 0-0.02 0.01-0.02 0.02C-3.321 207.466-3.331 207.436-3.331 207.405zM71.899 183.785c-15.535 17.703-45.832 24.573-43.55 45.75 1.207 11.019 10.133 22.296 11.35 27.311 3.174 13.123-17.963 26.659-27.43 19.31 4.433 0.477 9.54-2.942 11.94-6.96 0.302-1.101 0.302-4.294-1.93-8.06 -5.682-9.708-17.007-7.609-25.5-14.44 -3.81-3.06-6.81-7.27-8.18-12 -3.542-12.195 5.291-22.773 8.35-27.4 0 0-0.357-0.704-0.4-0.79 -1.744-13.806 8.071-30.664 22.64-35.979 -0.044-0.089-0.22-1.106-0.22-1.74 -0.058-6.386 7.545-11.939 13.5-11.939 -7.29-12.228 3.765-20.163 9.51-15.08 0.046 0.022 0.415 0.359 0.58 0.58 0.02 0.01 0.04 0.029 0.04 0.05 0.97 1.14 1.33 2.56 1.35 4.03 -0.25-1.46-0.85-2.78-2.03-3.721 -3.075-4.464-20.004 4.023-3.53 14.99 -4.196-5.593-4.388-10.792 1.97-14.22 -1.868 2.829-1.264 6.942 1.13 9.819 5.876 7.062 22.977 4.923 30.75 1.011 5.573-2.813 9.361-6.896 7.93-16.73C89.706 148.64 81.552 172.8 71.899 183.785z" fill="#3d2012" stroke-width="none" opacity="1" stroke="none" class="FsrPXEMD_5"></path></g><g id="svga-group-humanbody-single"><path id="SvgjsPath2761" d="M190.858 199.866c-6.008-10.158-13.474-11.973-19.628-13.936 -6.323-2.016-19.346-3.178-26.449-4.6 -6.86-1.373-23.153-5.789-23.339-13.488 -0.192-8.066 4.291-40.09 4.291-40.09H74.005c0 0 4.487 32.023 4.294 40.09 -0.184 7.699-16.48 12.115-23.341 13.488 -7.104 1.422-20.125 2.584-26.448 4.6 -6.156 1.963-13.624 3.777-19.632 13.936 -3.644 6.16-6.008 16.133-6.008 27.133h194C196.869 215.999 194.509 206.026 190.858 199.866z" fill="#e9b995" stroke-width="none" opacity="1" stroke="none" class="FsrPXEMD_6"></path><path id="SvgjsPath2762" d="M121.442 167.843c2.495 10.929 18.165 13.698 26.293 15.325 21.909 4.379 33.772 5.134 42.297 19.539 2.903 4.916 5.459 15.864 5.962 24.153 1.835 0.291 0.531-17.432-5.136-26.994 -9.742-16.472-29.089-15.135-46.077-18.535C137.921 179.958 121.628 175.542 121.442 167.843L121.442 167.843zM78.558 167.843c-0.186 7.699-16.479 12.115-23.339 13.488 -16.988 3.4-36.335 2.063-46.077 18.535 -5.667 9.563-6.971 27.285-5.136 26.994 0.503-8.289 3.059-19.237 5.962-24.153 8.524-14.405 20.388-15.16 42.297-19.539C60.393 181.541 76.063 178.771 78.558 167.843L78.558 167.843z" fill="#f8d3b8" stroke-width="none" opacity="1" stroke="none" class="FsrPXEMD_7"></path><path id="SvgjsPath2763" d="M51.206 189.513c0 0 28.641 0.299 33.473 1.885 2.314 0.758 8.372 5.633 8.372 5.633s-6.556-3.17-8.658-3.758C79.51 191.909 51.206 189.513 51.206 189.513zM99.795 199.999c2.053-0.041 7.887-3.799 7.887-3.799s-5.574 2.059-7.342 2.16c-1.491 0.086-6.366-1.238-6.366-1.238S98.112 200.032 99.795 199.999zM117.008 192.757c6.75-1.818 29.786-3.23 29.786-3.23s-23.791-0.516-30.51 1.725c-2.252 0.752-7.562 5.16-7.562 5.16S114.786 193.354 117.008 192.757z" fill="#daa075" stroke-width="none" opacity="1" stroke="none" class="FsrPXEMD_8"></path><path id="SvgjsPath2764" d="M190.858 199.866c-9.741-16.471-29.122-15.142-46.077-18.535 -6.86-1.373-23.153-5.789-23.339-13.488 -0.192-8.066 4.291-40.09 4.291-40.09H74.005c0 0 4.487 32.023 4.294 40.09 -0.184 7.699-16.48 12.115-23.341 13.488 -7.104 1.422-20.125 2.584-26.448 4.6 -6.156 1.963-13.624 3.777-19.632 13.936 -3.644 6.16-6.008 16.133-6.008 27.133h194C196.869 215.999 194.509 206.026 190.858 199.866z" fill="none" stroke="#bb7440" stroke-width="1.5" opacity="1" class="FsrPXEMD_9"></path></g><g id="svga-group-chinshadow-single"><path id="SvgjsPath3860" d="M100.045 171.737c5.593-0.009 13.488-3.608 20.908-8.44 0.448-6.688 1.717-17.243 2.734-25.146 -13.955-1.813-33.739-1.771-47.623 0.105 1.008 7.831 2.258 18.226 2.713 24.89C86.31 168.063 94.37 171.746 100.045 171.737z" fill="url(#SvgjsLinearGradient3861)" opacity="1" class="FsrPXEMD_10"></path></g><g id="svga-group-clothes-single"><path id="SvgjsPath4099" d="M110.139 228.889c-17.864 0-38.7-0.069-63.699-0.213l-22.105-0.12c-13.348-0.072-16.001-0.087-17.631-0.087l-4.573 0.006c0.032-40.523 20.015-43.334 41.17-46.313 7.271-1.023 14.789-2.082 21.584-4.733 8.525 11.975 21.924 13.591 33.912 13.591 0.667 0 1.341-0.006 2.016-0.017 12.668-0.285 27.552-4.774 32.317-14.161 0.614 0.234 1.186 0.504 1.738 0.766 0.621 0.293 1.263 0.597 1.974 0.854 4.65 1.684 10.432 2.48 16.552 3.324 20.011 2.76 44.916 6.193 44.578 45.069 0.003 0.154 0.004 1.097-0.012 1.392 -11.682 0-19.607 0.113-28.782 0.244 -12.445 0.178-27.935 0.398-59.027 0.398C110.145 228.889 110.142 228.889 110.139 228.889z" fill="#09aac5" stroke-width="none" opacity="1" class="FsrPXEMD_11"></path><path id="SvgjsPath4100" d="M197.869 226.999c-2.027-5.485-0.96-15.439-6.837-24.292 -11.653-17.556-33.322-15.948-53.227-21.639 -4.204 8.565-12.24 13.539-21.429 16.39l-0.016-0.047c9.016-3.198 16.683-8.066 21.003-16.475 -0.501-0.146-1.001-0.292-1.499-0.448l0.956-1.836c24.187 7.439 43.709 2.062 55.037 21.214C195.509 206.026 197.869 215.999 197.869 226.999zM57.233 182.344c1.267-0.294 2.53-0.607 3.788-0.948l-1.332-1.765c-23.343 6.027-40.887 2.21-51.548 20.235 -3.65 6.16-6.011 16.133-6.011 27.133 2.027-5.485 0.96-15.439 6.837-24.292 10.571-15.926 29.385-16.085 47.646-20.225 6.519 8.028 16.042 13.7 26.402 15.333C70.02 194.425 61.938 188.143 57.233 182.344z" fill="#1fbad4" stroke-width="none" opacity="1" class="FsrPXEMD_12"></path><path id="SvgjsPath4101" d="M132.08 178.811c-4.996 7.702-18.542 12.955-33.907 12.955 -15.182 0-27.706-5.206-33.5-13.926l-0.044-0.065 1.235 1.856c-1.369 0.581-4.817 1.748-4.817 1.748l-1.446-1.86 0.089 0.117c0.271 0.354 0.553 0.736 0.851 1.14 4.359 5.904 11.656 15.785 36.296 15.785 2.162 0 4.443-0.079 6.78-0.235 16.303-1.168 26.873-6.359 32.244-15.839C135.806 180.464 133.352 179.456 132.08 178.811z" fill="#009cb6" stroke-width="none" opacity="1" class="FsrPXEMD_13"></path><path id="SvgjsPath4102" d="M133.079 176.717c-5.041 10.081-21.03 13.934-32.27 14.187 -14.635 0.228-27.563-1.841-35.89-13.597 -26.368 10.344-62.89-3.587-62.89 51.269 9.28 0-4.304-0.062 44.41 0.2 115.375 0.663 115.16-0.43 151.61-0.43 0.027-0.131 0.023-1.356 0.021-1.49 0.44-50.604-41.021-41.186-61.195-48.488C135.504 177.871 134.422 177.218 133.079 176.717zM64.589 177.896c13.809 20.776 60.199 16.511 68.44-0.561 1.12 0.471 2.34 0.94 3.64 1.4 -3.904 8.186-12.275 16.001-33.06 17.49 -32.014 2.134-39.41-10.844-43.84-16.65C59.905 179.537 63.225 178.407 64.589 177.896zM2.169 228.405c2.5-22.877 4.756-39.219 32.69-44.068 9.593-1.77 14.509-1.939 24.83-4.731 7.873 10.792 15.739 18.518 44.7 17.3 21.37-2.377 28.569-9.619 32.461-18.1 26.52 8.347 59.285-0.172 60.88 49.38C147.265 227.529 98.51 226.216 2.169 228.405z" fill="#008197" stroke-width="none" opacity="1" class="FsrPXEMD_14"></path></g><g id="svga-group-head"><g id="svga-group-ears-left"><path id="SvgjsPath4109" d="M47.001 83.974c-1.376-2.313-5.638-7.997-9.98-6.603 -2.749 0.882-3.293 3.765-3.735 6.311 -0.588 3.386 0.471 10.083 1.389 12.503 0.881 2.325 3.533 6.816 5.264 8.527 2.13 2.1 4.775 8.793 5.194 9.487 0.66 1.097 1.536 2.745 4.122 2.538 2.853-0.229 4.584-1.742 5.856-1.999C58.253 114.109 50.582 89.995 47.001 83.974z" fill="#e9b995" stroke="#bb7440" stroke-width="1.5" opacity="1" class="FsrPXEMD_15"></path><path id="SvgjsPath4110" d="M44.197 97.997c-0.132-0.548 0.007-1.47 0.142-2.362 0.124-0.812 0.24-1.579 0.169-2.121 -0.267-2.032-1.773-5.893-2.757-7.985 -1.132-2.407-2.963-5.439-5.262-6.221 -0.95-0.324-1.575 0.063-1.938 0.456 -0.266 0.289-0.325 0.627-0.238 0.667 0.086 0.04 0.285-0.24 0.572-0.504 0.235-0.216 0.579-0.402 1.051-0.363 -0.19 1.011-1.167 6.49-0.744 10.225 0.333 2.938 1.593 5.131 1.79 5.46 0.029 0.346 0.077 0.685 0.148 1.014 0.929 4.287 4.971 9.163 6.378 10.758 0.259 0.295 0.531 0.47 0.598 0.398 0.066-0.072-0.094-0.364-0.353-0.66 -1.388-1.585-5.391-6.442-6.289-10.579 -0.952-4.389 2.318-10.896 3.048-12.272 0.371 0.646 0.687 1.267 0.93 1.785 0.19 0.406 0.402 0.881 0.619 1.395 -0.429 0.718-3.434 5.958-2.338 10.153 0.406 1.546 2.235 3.54 3.447 4.086 0.667 0.301 0.919 0.75 1.209 1.271 0.336 0.604 0.718 1.288 1.828 1.784 0.225 0.102 0.429 0.142 0.61 0.142 0.313 0 0.551-0.126 0.725-0.276 0.018 0.266 0.017 0.604 0.009 0.917 -0.012 0.404 0.042 0.737 0.137 0.745 0.094 0.008 0.196-0.313 0.207-0.717 0.016-0.496 0.013-1.11-0.072-1.403 -0.248-0.865-1.008-1.841-1.813-2.875C45.221 99.896 44.403 98.844 44.197 97.997zM36.95 94.196c-2.177-6.731 0.656-12.54 1.144-13.464 0.85 0.775 1.6 1.811 2.21 2.824C39.86 84.365 37.041 89.669 36.95 94.196zM46.341 104.042c-1.004-0.447-1.339-1.051-1.666-1.633 -0.293-0.527-0.598-1.072-1.369-1.42 -0.168-0.075-0.352-0.191-0.542-0.323 -2.486-5.906 0.272-8.488 0.963-9.017 0.211 0.722 0.369 1.384 0.439 1.915 0.063 0.488-0.052 1.263-0.167 2.012 -0.142 0.929-0.286 1.89-0.137 2.512 0.226 0.926 1.069 2.009 1.884 3.057 0.723 0.929 1.466 1.888 1.721 2.67C47.359 103.972 47.017 104.345 46.341 104.042z" fill="#bb7440" stroke-width="none" opacity="1" class="FsrPXEMD_16"></path></g><g id="svga-group-ears-right"><path id="SvgjsPath4111" d="M152.736 83.974c1.377-2.313 5.639-7.997 9.98-6.603 2.75 0.882 3.293 3.765 3.736 6.311 0.588 3.386-0.471 10.083-1.389 12.503 -0.881 2.325-3.533 6.816-5.266 8.527 -2.129 2.1-4.775 8.793-5.193 9.487 -0.658 1.097-1.535 2.745-4.121 2.538 -2.854-0.229-4.584-1.742-5.857-1.999C141.484 114.109 149.156 89.995 152.736 83.974z" fill="#e9b995" stroke="#bb7440" stroke-width="1.5" opacity="1" class="FsrPXEMD_17"></path><path id="SvgjsPath4112" d="M153.727 100.913c-0.805 1.033-1.564 2.009-1.813 2.875 -0.086 0.293-0.088 0.907-0.072 1.403 0.012 0.404 0.113 0.725 0.207 0.717s0.148-0.341 0.137-0.745c-0.008-0.313-0.008-0.651 0.01-0.917 0.174 0.15 0.412 0.276 0.725 0.276 0.182 0 0.385-0.04 0.609-0.142 1.109-0.496 1.492-1.18 1.828-1.784 0.289-0.52 0.543-0.969 1.209-1.271 1.213-0.546 3.041-2.54 3.447-4.086 1.096-4.194-1.908-9.435-2.338-10.153 0.217-0.513 0.43-0.988 0.619-1.395 0.244-0.518 0.559-1.139 0.93-1.785 0.73 1.377 4 7.883 3.049 12.272 -0.896 4.137-4.9 8.994-6.289 10.579 -0.258 0.296-0.418 0.588-0.352 0.66 0.066 0.071 0.338-0.104 0.598-0.398 1.406-1.596 5.449-6.471 6.379-10.758 0.07-0.329 0.117-0.668 0.146-1.014 0.197-0.329 1.459-2.523 1.791-5.46 0.422-3.735-0.555-9.214-0.744-10.225 0.473-0.039 0.814 0.146 1.051 0.363 0.287 0.264 0.486 0.544 0.572 0.504s0.027-0.378-0.238-0.667c-0.363-0.393-0.988-0.779-1.938-0.456 -2.299 0.782-4.131 3.814-5.262 6.221 -0.984 2.093-2.49 5.953-2.758 7.985 -0.072 0.542 0.045 1.309 0.17 2.121 0.135 0.892 0.273 1.814 0.141 2.362C155.336 98.844 154.518 99.896 153.727 100.913zM159.434 83.555c0.611-1.013 1.361-2.049 2.211-2.824 0.488 0.925 3.32 6.733 1.145 13.464C162.697 89.669 159.879 84.365 159.434 83.555zM152.27 103.816c0.254-0.782 0.998-1.741 1.721-2.67 0.816-1.048 1.658-2.131 1.885-3.057 0.148-0.622 0.004-1.583-0.137-2.512 -0.115-0.749-0.23-1.524-0.166-2.012 0.068-0.531 0.227-1.193 0.438-1.915 0.691 0.529 3.449 3.111 0.965 9.017 -0.191 0.132-0.375 0.248-0.543 0.323 -0.771 0.348-1.074 0.893-1.369 1.42 -0.326 0.582-0.662 1.186-1.666 1.633C152.721 104.345 152.379 103.972 152.27 103.816z" fill="#bb7440" stroke-width="none" opacity="1" class="FsrPXEMD_18"></path></g><g id="svga-group-faceshape-wrap"><g id="svga-group-faceshape-single"><path id="SvgjsPath3857" d="M158.918 76.762l-0.005 0c-0.012 0.053-8.517 40.707-16.719 53.285 -6.452 9.894-30.366 29.938-42.04 29.956 -11.671 0.02-35.637-19.958-42.119-29.833C49.794 117.618 41.15 77 41.138 76.946h-0.001c-1.298-4.911-1.994-10.066-2.002-15.382C39.082 28.09 66.289 0.919 99.907 0.867c33.621-0.052 60.913 27.033 60.963 60.507C160.879 66.69 160.201 71.846 158.918 76.762z" fill="#e9b995" stroke-width="none" opacity="1" class="FsrPXEMD_19"></path><path id="SvgjsPath3858" d="M125.898 6.622c19.104 10.248 32.075 30.355 32.039 53.476 -0.009 5.316-0.704 10.471-2.003 15.382h-0.001c-0.012 0.053-8.656 40.672-16.898 53.224 -5.946 9.061-26.755 29.522-39.033 29.522 -12.279 0-33.086-20.462-39.033-29.522 -8.242-12.552-16.887-53.17-16.898-53.224H44.07c-1.298-4.911-1.994-10.066-2.002-15.382C42.031 36.977 55.003 16.87 74.105 6.622 53.411 16.324 39.096 37.28 39.134 61.564c0.008 5.316 0.704 10.471 2.002 15.382h0.001C41.15 77 49.794 117.618 58.036 130.17c4.416 6.728 18.123 20.495 28.7 25.782 -0.529-0.226-1.062-0.466-1.599-0.717 5.408 2.875 10.664 4.763 14.713 4.768 0.049 0 0.103-0.005 0.152-0.005s0.103 0.005 0.152 0.005c4.048-0.005 9.304-1.893 14.713-4.768 -0.538 0.252-1.071 0.491-1.601 0.717 10.577-5.286 24.285-19.055 28.701-25.782 8.241-12.552 16.887-53.17 16.897-53.224h0.002c1.298-4.911 1.994-10.066 2.002-15.382C160.908 37.28 146.595 16.324 125.898 6.622z" fill="#e1ac85" stroke-width="none" opacity="1" class="FsrPXEMD_20"></path><path id="SvgjsPath3859" d="M158.918 76.762l-0.005 0c-0.012 0.053-8.517 40.707-16.719 53.285 -6.452 9.894-30.366 29.938-42.04 29.956 -11.671 0.02-35.637-19.958-42.119-29.833C49.794 117.618 41.15 77 41.138 76.946h-0.001c-1.298-4.911-1.994-10.066-2.002-15.382C39.082 28.09 66.289 0.919 99.907 0.867c33.621-0.052 60.913 27.033 60.963 60.507C160.879 66.69 160.201 71.846 158.918 76.762z" fill="none" stroke="#bb7440" stroke-width="1.5" opacity="1" class="FsrPXEMD_21"></path></g></g><g id="svga-group-mouth-single"><path id="SvgjsPath3872" d="M100.002 141.248c-4.158 0-5.133-3.404-5.133-3.404 5.5 2.12 10.267-0.146 10.267-0.146S103.659 141.248 100.002 141.248z" fill="url(#SvgjsLinearGradient3873)" opacity="1" class="FsrPXEMD_22"></path><path id="SvgjsPath3876" d="M86.803 131.94c2.756-0.951 6.973-2.692 9.166-2.789 1.133-0.052 2.351 0.87 3.574 1.165 0.851 0.206 3.264-1.156 4.13-1.165 2.272-0.024 7.06 1.838 9.502 2.789 0.135 0.054 0 0 0 0s-5.789 6.953-13.185 6.953C91.618 138.894 86.803 131.94 86.803 131.94S86.666 131.989 86.803 131.94z" fill="#f771a9" stroke="#e85391" stroke-width="0.75" opacity="1" class="FsrPXEMD_23"></path><path id="SvgjsPath3877" d="M113.541 131.736c-0.048-0.164-0.482-0.367-0.653-0.359 -0.311 0.017-0.672 0.396-1.313 0.41 -0.742 0.018-4.679 0.61-5.736 0.54 -2.129-0.142-3.824 0.666-5.848 0.666 -2.025 0-3.868-0.882-5.996-0.739 -1.057 0.072-4.847-0.448-5.591-0.467 -0.643-0.015-0.892-0.411-1.166-0.464 -0.192-0.036-0.663 0.166-0.757 0.338 -0.083 0.149 0.092 0.67 0.209 0.794 0.285 0.297 1.136 0.242 1.698 0.256 0.777 0.017 4.577 0.538 5.65 0.466 2.081-0.141 3.936 0.822 5.952 0.822s3.725-0.889 5.806-0.748c1.071 0.071 5.015-0.524 5.793-0.54 0.563-0.014 1.366-0.061 1.654-0.292C113.379 132.311 113.59 131.904 113.541 131.736z" fill="#c92066" stroke-width="none" opacity="1" class="FsrPXEMD_24"></path><path id="SvgjsPath3878" d="M99.989 137.352c-3.37 0-6.645-1.153-9.241-3.305 1.307-0.072 2.652-0.277 3.961-0.22 1.613 0.07 3.144 0.707 4.756 0.813 1.742 0.116 3.358-0.487 5.064-0.694 1.422-0.17 3.664-0.674 5.091-0.622C107.068 135.28 103.244 137.352 99.989 137.352zM104.562 131.739c1.314-0.037 3.414-0.532 4.724-0.437 -1.405-0.759-3.657-0.941-5.243-1.247 -1.366-0.266-2.738 0.791-4.081 0.968 -1.514 0.199-2.65-1.239-4.119-1.288 -1.593 0.017-3.233 0.991-4.634 1.65 1.284-0.034 2.607-0.176 3.886-0.012 1.566 0.199 3.069 0.817 4.655 0.87C101.373 132.299 102.939 131.782 104.562 131.739z" fill="#ff8ebd" stroke-width="none" opacity="1" class="FsrPXEMD_25"></path><path id="SvgjsPath3879" d="M99.941 136.4c-2.029 0-4.007-0.702-5.707-2.002 0.38-0.038 0.764-0.067 1.133-0.067 0.117 0 0.234 0.004 0.351 0.011 0.609 0.032 1.209 0.207 1.846 0.393 0.618 0.178 1.256 0.363 1.923 0.42 0.132 0.01 0.264 0.015 0.395 0.015 0.819 0 1.596-0.204 2.348-0.4 0.477-0.125 0.928-0.243 1.392-0.313 0.253-0.04 0.527-0.059 0.837-0.059 0.268 0 0.544 0.015 0.818 0.036C103.862 135.485 102.03 136.4 99.941 136.4z" fill="#ffa8cc" stroke-width="none" opacity="1" class="FsrPXEMD_26"></path></g><g id="svga-group-eyes-left"><g id="svga-group-eyesback-left"><path id="SvgjsPath3915" d="M60.606 84.841c9.825-9.869 20.004-8.215 25.751-1.317 0.702 1.373 0.997 2.864 0.875 4.343 -0.187 2.243-2.023 4.452-2.862 4.886 -2.361 1.221-4.936 1.942-7.547 2.09 -1.004 0.057-1.597 0.079-2.459 0 -1.709-0.157-3.145-0.513-4.85-1.213 -2.795-1.148-5.434-3.113-7.677-6.048 -0.033-0.042-0.081-0.067-0.132-0.068s-0.1 0.022-0.134 0.062l-0.089 0.108c-0.05 0.06-0.054 0.142-0.021 0.211 -0.252-0.344-0.478-0.689-0.673-1.036 0.007 0.004 0.011 0.006 0.018 0.01C60.344 86.035 60.365 85.193 60.606 84.841z" fill="url(#SvgjsRadialGradient3916)" opacity="1" class="FsrPXEMD_27"></path></g><g id="svga-group-eyesiriswrapper-left" transform="translate(0 -0.5)"><g id="svga-group-eyesiriscontrol-left"><g id="svga-group-eyesiris-left"><path id="SvgjsPath4041" d="M83.5 87.001c0 4.693-3.806 8.498-8.5 8.498s-8.5-3.805-8.5-8.498c0-4.697 3.806-8.502 8.5-8.502S83.5 82.304 83.5 87.001z" fill="#4e60a3" stroke="#152975" stroke-width="0.5" opacity="1" class="FsrPXEMD_28"></path><path id="SvgjsPath4042" d="M70.058 90.974c1.241-0.103 0.142-0.434 0.142-0.434 -0.613-0.331-1.768-0.839-1.768-1.306 0-1.461 2.002-1.839-0.048-2.416 -2.13-1.955 1.653-1.914 1.625-1.98 -1.381-3.366 0.423-1.518 1.183-2.512 2.816-3.682 0.785 0.378 2.314 0 0.554-0.136-1.105-2.169 0.048-1.884 0.763 0.187 0.937 0.821 0.937 0.821 0.557-0.109 1.428-0.966 1.428-0.966 1.061 0.32 1.806 1.827 1.478 1.545 0.522-0.063 1.252-0.313 1.822-0.483 0 0 0.1-0.338 0.196-0.047 1.3 3.77 4.652 3.5 0.792 4.589 0 0-0.249 0 0.542 0.627 3.839 3.066-2.978 2.117 0.638 3.527 0.147-0.146-2.167 1.368-2.167 1.787 0 0.71-1.477 2.576-2.757 1.841 -0.714-0.408-0.823 0.85-1.243 0.269 -0.823-1.138-2.467-0.049-1.859-1.095 0.898-0.737-0.926 0.289-1.28 0.289 -1.172 0 1.534-3.942 5.516-1.013 1.165 0.853-1.224-2.03 0.886-2.03 0.211 0.069 0.148-0.739 0.148-0.966 -1.098-0.215 1.969-0.005 1.969-1.788 0.193 0.039 0.721-0.495-2.316 0 0 0-0.097-1.063-0.048-1.256 0.156-0.62 1.72-0.422 1.28-1.063 -0.001-0.001-1.132-2.272-1.132-2.272 -3.645-0.586-1.562-0.952-3.841-0.483 -0.108 0.535-4.881 2.811-4.729 3.866 0.142 0.995 2.997 1.328 0.295 3.091C74.157 96.989 67.118 89.06 70.058 90.974z" fill="#6777b2" stroke-width="none" opacity="1" class="FsrPXEMD_29"></path><path id="SvgjsPath4043" d="M75,79.562l0.243,6.223l2.603-5.656l-2.158,5.84l4.572-4.229l-4.229,4.57l5.842-2.157l-5.655,2.604l6.222,0.242l-6.222,0.242l5.655,2.604l-5.842-2.157l4.229,4.57l-4.572-4.229l2.158,5.84l-2.603-5.656L75,94.437l-0.243-6.223l-2.604,5.656l2.156-5.84l-4.57,4.229l4.229-4.57l-5.842,2.157l5.655-2.604l-6.219-0.242l6.219-0.242l-5.655-2.604l5.842,2.157l-4.229-4.57l4.57,4.229l-2.156-5.84l2.604,5.656L75,79.562z" fill="#4e60a3" stroke="#384b94" stroke-width="0.5" opacity="1" class="FsrPXEMD_30"></path><path id="SvgjsPath4044" d="M76.128,81.428l-0.764,4.697l2.808-3.841l-2.501,4.047l4.065-2.476l-3.859,2.783l4.702-0.73l-4.632,1.092l4.626,1.125l-4.699-0.762l3.842,2.808l-4.05-2.5l2.476,4.064l-2.783-3.86l0.73,4.702l-1.092-4.632l-1.126,4.625l0.764-4.697l-2.811,3.841l2.504-4.048l-4.064,2.476l3.86-2.783l-4.702,0.73l4.631-1.093l-4.625-1.125l4.697,0.761l-3.842-2.808l4.05,2.5l-2.475-4.064l2.782,3.86l-0.73-4.701l1.095,4.632L76.128,81.428z" fill="#4e60a3" stroke="#253984" stroke-width="0.5" opacity="1" class="FsrPXEMD_31"></path><path id="SvgjsPath4045" d="M78.188 87c0 1.761-1.428 3.187-3.188 3.187S71.813 88.76 71.813 87c0-1.76 1.428-3.188 3.188-3.188S78.188 85.239 78.188 87z" fill="#000000" stroke-width="none" opacity="0.9" class="FsrPXEMD_32"></path><path id="SvgjsPath4046" d="M71.653 93.108c-0.469 0.469-1.396 0.304-2.069-0.37 -0.674-0.673-0.84-1.6-0.37-2.069 0.469-0.469 1.396-0.304 2.069 0.37S72.123 92.638 71.653 93.108z" fill="#ffffff" stroke-width="none" opacity="0.7" class="FsrPXEMD_33"></path><path id="SvgjsPath4047" d="M81.809 85.326c-0.702 0.703-2.404 0.142-3.8-1.255 -1.396-1.396-1.958-3.097-1.255-3.8 0.703-0.703 2.404-0.142 3.8 1.255C81.95 82.922 82.511 84.624 81.809 85.326z" fill="#ffffff" stroke-width="none" opacity="0.9" class="FsrPXEMD_34"></path></g></g></g><g id="svga-group-eyesfront-left"><path id="SvgjsPath3940" d="M55.5 87c0 13.808 8.283 24.999 18.5 24.999S92.5 100.808 92.5 87c0-13.809-8.283-25.001-18.5-25.001S55.5 73.191 55.5 87zM60.79 86.86c0.007 0.004 0.011 0.006 0.018 0.01 -0.464-0.835-0.442-1.677-0.201-2.029 9.825-9.869 20.004-8.215 25.751-1.317 0.702 1.373 0.997 2.864 0.875 4.343 -0.187 2.243-2.023 4.452-2.862 4.886 -2.361 1.221-4.936 1.942-7.547 2.09 -1.004 0.057-1.597 0.079-2.459 0 -1.709-0.157-3.145-0.513-4.85-1.213 -2.795-1.148-5.434-3.113-7.677-6.048 -0.033-0.042-0.081-0.067-0.132-0.068s-0.1 0.022-0.134 0.062l-0.089 0.108c-0.05 0.06-0.054 0.142-0.021 0.211C61.211 87.551 60.985 87.207 60.79 86.86z" fill="#e9b995" stroke-width="none" opacity="1" class="FsrPXEMD_35"></path><path id="SvgjsPath3941" d="M59.397 85.083c0.023 8.56 7.646 15.459 17.038 15.416 9.389-0.049 16.985-7.022 16.961-15.583 -0.023-8.562-7.647-15.463-17.04-15.417C66.965 69.549 59.373 76.522 59.397 85.083zM60.79 86.86c0.007 0.004 0.011 0.006 0.018 0.01 -0.464-0.835-0.442-1.677-0.201-2.029 9.825-9.869 20.004-8.215 25.751-1.317 0.702 1.373 0.997 2.864 0.875 4.343 -0.187 2.243-2.023 4.452-2.862 4.886 -2.361 1.221-4.936 1.942-7.547 2.09 -1.004 0.057-1.597 0.079-2.459 0 -1.709-0.157-3.145-0.513-4.85-1.213 -2.795-1.148-5.434-3.113-7.677-6.048 -0.033-0.042-0.081-0.067-0.132-0.068s-0.1 0.022-0.134 0.062l-0.089 0.108c-0.05 0.06-0.054 0.142-0.021 0.211C61.211 87.551 60.985 87.207 60.79 86.86z" fill="url(#SvgjsRadialGradient3942)" opacity="1" class="FsrPXEMD_36"></path><path id="SvgjsPath3946" d="M86.366 83.544c0.694 1.368 0.987 2.851 0.866 4.323 -0.187 2.243-2.023 4.452-2.862 4.886 -2.361 1.221-4.936 1.942-7.547 2.09 -1.004 0.057-1.597 0.079-2.459 0 -1.709-0.157-3.145-0.513-4.85-1.213 -2.795-1.148-5.434-3.113-7.677-6.048 -0.033-0.042-0.081-0.067-0.132-0.068s-0.1 0.022-0.134 0.062l-0.089 0.108c-0.05 0.06-0.054 0.142-0.021 0.211 -0.252-0.344-0.478-0.689-0.673-1.036 0.007 0.004 0.011 0.006 0.018 0.01 -0.464-0.835-0.442-1.677-0.201-2.029 5.075-5.098 10.243-7.115 14.848-6.929C79.788 78.271 83.639 80.365 86.366 83.544z" fill="url(#SvgjsRadialGradient3947)" opacity="1" class="FsrPXEMD_37"></path><path id="SvgjsPath3950" d="M88.72 80.246c-10.614-5.735-17.602-6.912-29.764 0.871C64.86 76.74 74.154 70.902 88.72 80.246z" fill="#bb7440" stroke-width="none" opacity="1" class="FsrPXEMD_38"></path><path id="SvgjsPath3951" d="M83.382 93.339l0.818 0.22 -2.012 0.25 1.579 0.635c0 0-2.043-0.21-2.587-0.084 -6.677 1.549-13.526 0.203-17.381-3.689 -0.484-0.149-1.645 0.105-1.645 0.105l1.156-0.609c-0.339-0.63-0.965-0.497-2.986-0.403 0.95-0.306 1.928-0.601 1.85-0.834l-0.707-1.09c-0.045-0.069-0.038-0.159 0.016-0.221l0.089-0.102c0.033-0.039 0.082-0.061 0.133-0.06 0.052 0.001 0.1 0.024 0.132 0.064 6.175 7.677 15.34 8.45 22.533 4.914L83.382 93.339zM88.313 82.722c-1.012-0.981-1.752-1.504-2.806-2.059 0.774-0.323 1.857-0.513 1.857-0.513l-3.095-0.377c-6.089-3.332-9.937-3.585-16.336-1.394 -0.797 0.273-2.852-0.338-4.646-0.939l2.033 1.955c-1.244 0.038-2.207-0.3-3.541-0.559l2.2 1.259c-0.95 0.699-1.94 0.65-4.954 0.562l2.444 1.316c-1.067 0.404-1.521 0.275-2.982-0.047 0.489 0.504 0.92 0.862 1.498 1.162 -0.785 0.05-1.807 0.152-3.175-0.278 0.675 0.699 1.281 1.296 1.756 1.469l-1.07 0.44 1.516 0.559 -1.053 0.655c1.203 0.046 1.836 0.305 2.849 0.916 -0.464-0.793-0.442-1.594-0.201-1.928 10.473-9.996 21.35-7.552 26.829 0.108l-0.736-1.344 1.354 1.279 -1.242-1.732 1.12 0.596 -1.074-1.522L88.313 82.722z" fill="#000000" stroke-width="none" opacity="1" class="FsrPXEMD_39"></path></g></g><g id="svga-group-eyes-right"><g id="svga-group-eyesback-right"><path id="SvgjsPath3923" d="M139.394 84.841c-9.825-9.869-20.004-8.215-25.751-1.317 -0.702 1.373-0.997 2.864-0.875 4.343 0.187 2.243 2.023 4.452 2.862 4.886 2.361 1.221 4.936 1.942 7.547 2.09 1.004 0.057 1.597 0.079 2.459 0 1.709-0.157 3.145-0.513 4.85-1.213 2.795-1.148 5.434-3.113 7.677-6.048 0.033-0.042 0.081-0.067 0.132-0.068s0.1 0.022 0.134 0.062l0.089 0.108c0.05 0.06 0.054 0.142 0.021 0.211 0.252-0.344 0.478-0.689 0.673-1.036 -0.007 0.004-0.011 0.006-0.018 0.01C139.656 86.035 139.635 85.193 139.394 84.841z" fill="url(#SvgjsRadialGradient3924)" opacity="1" class="FsrPXEMD_40"></path></g><g id="svga-group-eyesiriswrapper-right" transform="translate(0 -0.5)"><g id="svga-group-eyesiriscontrol-right"><g id="svga-group-eyesiris-right"><path id="SvgjsPath4048" d="M133.5 87.001c0 4.692-3.806 8.498-8.5 8.498s-8.5-3.806-8.5-8.498c0-4.697 3.806-8.502 8.5-8.502S133.5 82.304 133.5 87.001z" fill="#4e60a3" stroke="#152975" stroke-width="0.5" opacity="1" class="FsrPXEMD_41"></path><path id="SvgjsPath4049" d="M120.059 90.974c1.24-0.103 0.142-0.434 0.142-0.434 -0.613-0.33-1.768-0.838-1.768-1.305 0-1.461 2.002-1.84-0.048-2.416 -2.131-1.956 1.652-1.915 1.625-1.981 -1.382-3.366 0.423-1.518 1.182-2.512 2.816-3.682 0.785 0.378 2.314 0 0.555-0.136-1.104-2.169 0.048-1.884 0.763 0.186 0.938 0.821 0.938 0.821 0.557-0.109 1.428-0.966 1.428-0.966 1.061 0.32 1.806 1.828 1.478 1.546 0.521-0.063 1.252-0.313 1.821-0.483 0 0 0.1-0.338 0.196-0.046 1.3 3.77 4.652 3.499 0.791 4.589 0 0-0.249 0 0.542 0.627 3.84 3.065-2.978 2.117 0.638 3.527 0.148-0.147-2.167 1.367-2.167 1.786 0 0.711-1.477 2.576-2.757 1.842 -0.714-0.409-0.822 0.85-1.243 0.269 -0.823-1.138-2.468-0.049-1.859-1.095 0.898-0.737-0.926 0.288-1.28 0.288 -1.172 0 1.534-3.942 5.516-1.013 1.165 0.854-1.225-2.029 0.886-2.029 0.212 0.069 0.148-0.739 0.148-0.967 -1.097-0.214 1.97-0.004 1.97-1.787 0.193 0.038 0.721-0.496-2.316 0 0 0-0.097-1.064-0.048-1.256 0.156-0.619 1.721-0.422 1.28-1.063 -0.001-0.001-1.133-2.271-1.133-2.271 -3.645-0.587-1.562-0.953-3.84-0.483 -0.108 0.535-4.881 2.811-4.729 3.866 0.142 0.994 2.996 1.328 0.295 3.092C124.157 96.989 117.118 89.06 120.059 90.974z" fill="#6777b2" stroke-width="none" opacity="1" class="FsrPXEMD_42"></path><path id="SvgjsPath4050" d="M125,79.562l0.242,6.222l2.604-5.656l-2.158,5.84l4.571-4.228l-4.229,4.57l5.842-2.157l-5.655,2.604l6.222,0.242l-6.222,0.242l5.655,2.604l-5.842-2.157l4.229,4.57l-4.571-4.228l2.158,5.84l-2.604-5.656L125,94.437l-0.242-6.222l-2.605,5.656l2.157-5.84l-4.57,4.228l4.229-4.57l-5.842,2.157l5.654-2.604l-6.219-0.242l6.219-0.242l-5.654-2.604l5.842,2.157l-4.229-4.57l4.57,4.228l-2.157-5.84l2.605,5.656L125,79.562z" fill="#4e60a3" stroke="#384b94" stroke-width="0.5" opacity="1" class="FsrPXEMD_43"></path><path id="SvgjsPath4051" d="M126.128,81.428l-0.764,4.697l2.808-3.841l-2.501,4.047l4.064-2.475l-3.859,2.782l4.702-0.73l-4.632,1.093l4.626,1.125l-4.699-0.762l3.843,2.808l-4.05-2.5l2.476,4.063l-2.783-3.86l0.73,4.702l-1.092-4.632l-1.126,4.625l0.764-4.697l-2.812,3.841l2.505-4.047l-4.065,2.475l3.86-2.782l-4.702,0.73l4.631-1.094l-4.624-1.124l4.696,0.761l-3.842-2.808l4.05,2.501l-2.476-4.063l2.782,3.86l-0.73-4.702l1.095,4.632L126.128,81.428z" fill="#4e60a3" stroke="#253984" stroke-width="0.5" opacity="1" class="FsrPXEMD_44"></path><path id="SvgjsPath4052" d="M128.188 87c0 1.761-1.428 3.187-3.188 3.187s-3.188-1.426-3.188-3.187c0-1.76 1.428-3.188 3.188-3.188S128.188 85.239 128.188 87z" fill="#000000" stroke-width="none" opacity="0.9" class="FsrPXEMD_45"></path><path id="SvgjsPath4053" d="M121.653 93.108c-0.47 0.469-1.396 0.304-2.069-0.369 -0.674-0.673-0.84-1.601-0.369-2.07 0.469-0.47 1.395-0.304 2.068 0.369C121.956 91.712 122.122 92.639 121.653 93.108z" fill="#ffffff" stroke-width="none" opacity="0.7" class="FsrPXEMD_46"></path><path id="SvgjsPath4054" d="M131.809 85.326c-0.702 0.703-2.403 0.142-3.8-1.254 -1.396-1.396-1.957-3.098-1.256-3.8 0.703-0.703 2.405-0.142 3.8 1.254C131.949 82.922 132.512 84.624 131.809 85.326z" fill="#ffffff" stroke-width="none" opacity="0.9" class="FsrPXEMD_47"></path></g></g></g><g id="svga-group-eyesfront-right"><path id="SvgjsPath3961" d="M126 61.999c-10.217 0-18.5 11.192-18.5 25.001 0 13.808 8.283 24.999 18.5 24.999S144.5 100.808 144.5 87C144.5 73.191 136.217 61.999 126 61.999zM138.537 87.896c0.033-0.069 0.029-0.152-0.021-0.211l-0.089-0.108c-0.034-0.04-0.083-0.063-0.134-0.062s-0.099 0.026-0.132 0.068c-2.243 2.935-4.882 4.9-7.677 6.048 -1.705 0.701-3.141 1.056-4.85 1.213 -0.862 0.08-1.455 0.058-2.459 0 -2.611-0.148-5.186-0.869-7.547-2.09 -0.839-0.434-2.676-2.643-2.862-4.886 -0.122-1.479 0.173-2.97 0.875-4.343 5.747-6.898 15.926-8.551 25.751 1.317 0.241 0.352 0.263 1.194-0.201 2.029 0.007-0.004 0.011-0.006 0.018-0.01C139.015 87.207 138.789 87.551 138.537 87.896z" fill="#e9b995" stroke-width="none" opacity="1" class="FsrPXEMD_48"></path><path id="SvgjsPath3962" d="M123.644 69.499c-9.393-0.045-17.017 6.856-17.04 15.417 -0.024 8.56 7.572 15.533 16.961 15.583 9.392 0.043 17.015-6.856 17.038-15.416C140.627 76.522 133.035 69.549 123.644 69.499zM138.537 87.896c0.033-0.069 0.029-0.152-0.021-0.211l-0.089-0.108c-0.034-0.04-0.083-0.063-0.134-0.062s-0.099 0.026-0.132 0.068c-2.243 2.935-4.882 4.9-7.677 6.048 -1.705 0.701-3.141 1.056-4.85 1.213 -0.862 0.08-1.455 0.058-2.459 0 -2.611-0.148-5.186-0.869-7.547-2.09 -0.839-0.434-2.676-2.643-2.862-4.886 -0.122-1.479 0.173-2.97 0.875-4.343 5.747-6.898 15.926-8.551 25.751 1.317 0.241 0.352 0.263 1.194-0.201 2.029 0.007-0.004 0.011-0.006 0.018-0.01C139.015 87.207 138.789 87.551 138.537 87.896z" fill="url(#SvgjsRadialGradient3963)" opacity="1" class="FsrPXEMD_49"></path><path id="SvgjsPath3967" d="M113.634 83.544c-0.694 1.368-0.987 2.851-0.866 4.323 0.187 2.243 2.023 4.452 2.862 4.886 2.361 1.221 4.936 1.942 7.547 2.09 1.004 0.057 1.597 0.079 2.459 0 1.709-0.157 3.145-0.513 4.85-1.213 2.795-1.148 5.434-3.113 7.677-6.048 0.033-0.042 0.081-0.067 0.132-0.068s0.1 0.022 0.134 0.062l0.089 0.108c0.05 0.06 0.054 0.142 0.021 0.211 0.252-0.344 0.478-0.689 0.673-1.036 -0.007 0.004-0.011 0.006-0.018 0.01 0.464-0.835 0.442-1.677 0.201-2.029 -5.075-5.098-10.243-7.115-14.848-6.929C120.212 78.271 116.361 80.365 113.634 83.544z" fill="url(#SvgjsRadialGradient3968)" opacity="1" class="FsrPXEMD_50"></path><path id="SvgjsPath3971" d="M111.28 80.246c10.614-5.735 17.602-6.912 29.764 0.871C135.14 76.74 125.846 70.902 111.28 80.246z" fill="#bb7440" stroke-width="none" opacity="1" class="FsrPXEMD_51"></path><path id="SvgjsPath3972" d="M115.63 92.437c7.193 3.537 16.358 2.764 22.533-4.914 0.032-0.04 0.08-0.063 0.132-0.064 0.051-0.001 0.1 0.021 0.133 0.06l0.089 0.102c0.054 0.062 0.061 0.152 0.016 0.221l-0.707 1.09c-0.078 0.233 0.899 0.528 1.85 0.834 -2.021-0.094-2.647-0.227-2.986 0.403l1.156 0.609c0 0-1.16-0.254-1.645-0.105 -3.854 3.892-10.704 5.238-17.381 3.689 -0.544-0.126-2.587 0.084-2.587 0.084l1.579-0.635 -2.012-0.25 0.818-0.22L115.63 92.437zM113.144 82.303l-1.074 1.522 1.12-0.596 -1.242 1.732 1.354-1.279 -0.736 1.344c5.479-7.66 16.356-10.104 26.829-0.108 0.241 0.334 0.263 1.135-0.201 1.928 1.013-0.61 1.646-0.87 2.849-0.916l-1.053-0.655 1.516-0.559 -1.07-0.44c0.475-0.172 1.081-0.77 1.756-1.469 -1.368 0.43-2.39 0.328-3.175 0.278 0.578-0.299 1.009-0.657 1.498-1.162 -1.461 0.322-1.915 0.452-2.982 0.047l2.444-1.316c-3.014 0.088-4.004 0.137-4.954-0.562l2.2-1.259c-1.334 0.259-2.297 0.597-3.541 0.559l2.033-1.955c-1.795 0.601-3.85 1.212-4.646 0.939 -6.399-2.191-10.247-1.938-16.336 1.394l-3.095 0.377c0 0 1.083 0.19 1.857 0.513 -1.054 0.554-1.794 1.077-2.806 2.059L113.144 82.303z" fill="#000000" stroke-width="none" opacity="1" class="FsrPXEMD_52"></path></g></g><g id="svga-group-facehighlight-single"><path id="SvgjsPath2753" d="M140.204 113.007c0.035 22.275-17.995 40.365-40.273 40.396 -22.274 0.036-40.361-17.993-40.396-40.272C59.501 90.857 77.53 72.77 99.808 72.735 122.083 72.701 140.171 90.73 140.204 113.007z" fill="url(#SvgjsRadialGradient2754)" opacity="1" class="FsrPXEMD_53"></path><path id="SvgjsPath2757" d="M135,55.999c0,19.329-15.671,35-35,35c-19.329,0-35-15.671-35-35s15.671-35,35-35C119.329,20.999,135,36.67,135,55.999z" fill="url(#SvgjsRadialGradient2758)" opacity="1" class="FsrPXEMD_54"></path></g><g id="svga-group-eyebrows-left"><path id="SvgjsPath4075" d="M52.004 78c27.284-21.604 46.019-2.98 38.919-3.268C89.81 74.701 77.501 64.043 52.004 78z" fill="#6b4e40" stroke-width="none" opacity="1" stroke="none" class="FsrPXEMD_55"></path></g><g id="svga-group-eyebrows-right"><path id="SvgjsPath4076" d="M147.996 78c-8.301-6.572-16.838-10.828-27.652-10.275 -13.949 0.957-14.771 9.377-9.785 6.334 2.781-1.698 6.721-2.98 10.842-3.132C130.288 70.405 139.611 73.413 147.996 78z" fill="#6b4e40" stroke-width="none" opacity="1" stroke="none" class="FsrPXEMD_56"></path></g><g id="svga-group-nose-single"><path id="SvgjsPath3888" d="M97.363 92.602c0 0 0.055 7.962-0.458 9.512 -1.129 3.405-6.123 11.297-5.49 13.486 0.985 3.403 5.817 3.652 8.259 3.771 2.338 0.115 7.091-0.055 7.857-2.267 0.312-0.9-0.361-3.197-0.361-3.197s-2.165 2.228-7.266 1.98c-1.456-0.07-3.824-1.5-3.851-3.517 -0.036-2.734 1.805-5.87 2.135-8.583C98.438 101.726 97.363 92.602 97.363 92.602z" fill="#daa075" stroke-width="none" opacity="1" class="FsrPXEMD_57"></path><path id="SvgjsPath3889" d="M104.209 117.032c0.881 0 1.119 0.234 1.119 0.522 0 0.29-0.274 0.735-1.119 0.522 -0.928-0.231-2.548-0.124-2.548-0.124S103.328 117.032 104.209 117.032zM95.8 117.032c-0.881 0.001-1.119 0.236-1.119 0.525 0 0.288 0.265 0.704 1.119 0.521 0.941-0.201 2.548-0.125 2.548-0.125S96.682 117.035 95.8 117.032zM107.169 113.906c0 0 1.22 1.384 0.966 2.847 -0.246 1.421-2.709 2.047-2.709 2.047s1.71-1.085 1.917-2.403C107.439 115.781 107.169 113.906 107.169 113.906zM92.12 112.482c0 0-0.89 1.938-0.632 3.117 0.467 2.13 3.032 2.982 3.032 2.982s-1.601-1.462-2.17-2.753C91.729 114.42 92.12 112.482 92.12 112.482z" fill="#bb7440" stroke-width="none" opacity="1" class="FsrPXEMD_58"></path><path id="SvgjsPath3890" d="M104.166 114.937c0.854-0.637 0.939-1 0.763-1.237 -0.176-0.238-0.688-0.389-1.403 0.379 -0.788 0.846-2.502 1.47-2.502 1.47S103.312 115.574 104.166 114.937z" fill="#f8d3b8" stroke-width="none" opacity="1" class="FsrPXEMD_59"></path></g><g id="svga-group-hair-front"><path id="SvgjsPath4092" d="M163.476 45.849C157.957 11.071 51.814-21.979 45.016 30.572c-0.885 18.136-10.912 73.919-11.9 84.041 6.018-18.799 20.431-5.47 38.764-49.857 4.9-11.864 11.813-39.917 31.311-41.801 9.464-0.893 16.743 3.867 19.483 12.72 8.666-4.414 8.823 13.935 10.045 23.533 1.612 12.513 0.039 18.399 7.431 27.51 0.063 0.161 1.351 1.595 1.363 1.609 11.489 12.621 22.998 12.145 25.989 24.744C168.675 118.003 161.736 45.363 163.476 45.849z" fill="#6b4e40" stroke-width="none" opacity="0.1" stroke="none" class="FsrPXEMD_60"></path><path id="SvgjsPath4093" d="M10.679 67.989c-0.08 0.52-0.14 1.05-0.18 1.58 -3.683 6.71-0.19 17.072 7.2 19.07 3.015 2.597 6.918 4.146 10.19 4.51C12.352 96.056 3.486 80.156 10.679 67.989zM140.989 150.802c1.873 11.332-8.278 12.377-17.511 19.258l-0.136-0.146c3.56-4.151 8.838-4.812 12.242-8.592 5.51-6.138-0.258-14.435 1.428-20.549 2.926-10.847 21.597-10.767 21.597-24.554 -0.088-11.4-10.183-10.74-13.68-25.996 3.991 4.223 8.235 7.215 14.113 9.352 2.064 2.779 5.38 10.297 2.086 14.754l-0.133-0.071c1.018-3.279 0.099-7.181-1.637-9.489 -1.885-2.487-3.539-2.963-5.204-3.87 6.479 8.318 6.148 15.227 6.144 15.296 0 18.127-24.507 11.586-19.896 31.825 0.395 1.726 0.462 2.093 0.595 2.789L140.989 150.802zM28.074 93.072c-0.721 0.188-1.471 0.338-2.282 0.473 -19.331 17.736 8.183 44.458 20.79 26.081l-0.148-0.132c-1.512 1.33-3.145 2.004-4.854 2.004h-0.001c-4.978-0.002-9.098-5.829-7.713-10.782 2.755-9.938 16.66-13.418 22.715-21.969 3.322-4.667 7.244-13.057 9.402-18.934l-0.181-0.083C56.737 86.019 42.105 94.836 28.074 93.072zM54.746 91.833c-2.594 6.695-17.633 13.882-13.478 23.168l0.189-0.06c-0.4-2.134 0.236-4.373 1.944-6.846 5.659-8.237 14.417-8.034 16.256-22.935l-0.188-0.059C58.019 87.842 57.463 88.981 54.746 91.833zM169.426 107.563c1.005 1.093 2.341 3.133 3.048 5.467l0.195-0.025c0.314-7.889-6.813-11.093-13.422-13.359 0.99 1.468 13.351 10.311 5.77 21.729 -6.407 9.553-20.878 9.986-24.507 22.293 0.191 2.607 1.072 5.197 1.342 8.249 1.865 3.505 1.438 5.546 0.955 6.777l0.176 0.092c2.649-3.987 0.84-6.468-0.039-8.81 -4.883-13.385 11.86-17.55 21.416-26.186C171.809 116.342 171.383 110.944 169.426 107.563zM173.211 87.674c4.254-0.131 8.963-2.941 9.957-8.197l-0.181-0.076c-3.981 5.667-9.384 4.417-10.994 3.249 4.146-3.207 6.866-7.883 7.496-13.841 0.855-8.086-2.466-16.957-6.196-21.562 0.679-4.414-0.745-5.51-3.217-7.753l-0.149 0.131c2.775 4.03-1.925 10.404-7.444 2.045 1.132 1.552 2.68 3.229 4.529 3.746 -5.866-36.958-29.602-49.74-43.027-44.981C79.132-29.613 36.629 3.565 29.402 59.413c-8.654-6.647-17.233-1.502-18.283 9.256 -2.856 27.867 36.579 37.724 57.34-6.717 5.763-12.363 13.758-38.861 34.479-40.863 0.731-0.07 1.461-0.106 2.166-0.106 8.938 0 15.002 5.705 17.664 14.319 9.215-4.692 12.382 13.048 13.681 23.25 1.714 13.297 0.041 19.554 7.897 29.234 0.067 0.171 1.436 1.697 1.448 1.711 12.213 13.413 23 8.257 26.729 19.893 1.64 5.134-1.395 9.365-4.83 13.418 1.683-0.594 5.142-0.965 8.508-2.992C187.004 113.299 188.721 98.575 173.211 87.674z" fill="#6b4e40" stroke-width="none" opacity="1" stroke="none" class="FsrPXEMD_61"></path><path id="SvgjsPath4094" d="M80.007 36.444c3.484-8.505 13.429-16.407 28.114-15.8 7.039 0.291 15.361 8.612 14.549 15.101C113.548 27.292 93.276 27.292 80.007 36.444z" fill="#4c2d1e" stroke-width="none" opacity="1" stroke="none" class="FsrPXEMD_62"></path><path id="SvgjsPath4095" d="M170.429 39.816c2.258 2.056 3.086 2.956 2.981 5.889 -1.468 6.625-9.488 4.38-13.608 0.529C167.771 50.245 173.41 45.705 170.429 39.816zM183.168 79.478l-0.05-0.021c-0.736 1.761-1.699 3.408-3.118 4.827 -7 5-16 2-22-3 4.172 4.768 9.765 6.677 15.508 6.609 -0.101-0.072-0.195-0.147-0.297-0.219C177.465 87.543 182.174 84.733 183.168 79.478zM21 106.283c0.924-5.081 3.351-9.303 6.474-13.071 0 0-0.799 0.187-1.682 0.333 -13.494 12.38-4.18 29.248 7.159 31.901C25.569 121.724 20.294 114.754 21 106.283zM65.802 69.73c-1.389 5.293-6.815 15.637-9.221 19.017 -6.055 8.55-19.96 12.031-22.715 21.969 -1.832 6.554 5.961 14.591 12.568 8.778l0.148 0.132c-0.396 0.577-0.815 1.104-1.248 1.604 -11.551 8.911-20.499-8.806-11.334-17.946C43.878 93.434 57.354 93.212 65.802 69.73zM27.801 93.135c-13.83 3.412-24.862-12.053-17.122-25.146 -0.08 0.52-0.14 1.05-0.18 1.58 -3.683 6.71-0.19 17.072 7.2 19.07C20.688 91.213 24.547 92.754 27.801 93.135zM169.188 122.389c-1.076 0.251-1.021 0.252-1.494 0.419 3.436-4.053 6.47-8.284 4.83-13.418 -3.797-11.849-14.94-6.297-27.454-20.715 -0.021-0.132-0.021-0.132 0 0 -8.636-9.933-6.913-16.879-8.62-30.123 -1.299-10.201-4.466-27.941-13.681-23.25 -3.2-10.356-10.696-15.091-19.83-14.213 -20.72 2.001-28.716 28.5-34.479 40.863C50.633 100.11 19.085 98.196 12.309 79.394c2.157 2.185 8.936 7.523 11.927 8.292C40.55 91.879 52 82.284 59 67.284c10-22 21-60 51-52 6 2 13 8 14 16 1-4 5.137-1.504 6-1 7.536 4.402 8 31 12 47 2 8 8 13 14 16 9 4 25 10 19 22 6.769-4.062 8.493-11.33 7.043-18.394C187.865 106.951 183.654 119.025 169.188 122.389zM161.129 114.329l-0.133-0.071c1.017-3.275 0.104-7.174-1.637-9.489 -1.885-2.487-3.539-2.963-5.204-3.87 4.465 5.581 6.358 12.247 6.144 15.296 0 8.941-6.206 12.02-11.986 15.351 4.062-3.166 8.695-5.614 10.688-10.262 1.146-3.44 1.423-9.372-2.048-13.682 -11.664-14.484-11.253-14.337-11.94-17.292 3.938 3.995 7.768 6.989 14.031 9.265C161.107 102.354 164.423 109.872 161.129 114.329zM172.669 113.004l-0.195 0.025c-0.707-2.334-2.043-4.374-3.048-5.467 1.957 3.382 2.383 8.779-5.066 16.228 -9.556 8.636-26.299 12.801-21.416 26.186 0.879 2.342 2.688 4.822 0.039 8.81l-0.176-0.092c0.483-1.231 0.91-3.272-0.955-6.777 -0.27-3.052-1.15-5.642-1.342-8.249 3.629-12.307 18.1-12.74 24.507-22.293 7.571-11.404-4.733-20.192-5.77-21.729C165.855 101.911 172.983 105.115 172.669 113.004zM138.919 11.468c1.651-0.094 6.902 0.992 11.702 5.47 0.264 0.246 1.177 0.876 1.267 1.242 -0.053-0.213-0.432-0.529-0.565-0.695 -8.649-10.731-20.844-10.137-26.215 1.18C128.837 12.739 132.46 11.238 138.919 11.468zM125.292 12.5c3.131-6.863 6.52-8.033 11.678-9.144 -2.425 0.7-4.488 1.909-6.559 3.308C128.204 8.155 126.642 10.248 125.292 12.5zM98.428-3.456c6.193 0.112 9.726 0.061 15.894 2.858 3.988 1.808 8.072 6.634 9.125 10.58 0.092 0.343 0.146 0.956 0.357 1.247 -0.157-0.216-0.236-0.559-0.338-0.802 -0.903-2.179-2.23-4.043-3.886-5.615 -3.045-2.892-9.305-6.081-13.272-7.017C103.713-2.817 101.07-3.128 98.428-3.456zM85.466 8.464c8.818-2.963 18.533-4.691 27.102-0.052 7.246 3.922 12.452 15.885 12.019 21.152 0.035-0.425-0.144-0.972-0.211-1.389 -0.442-2.74-1.213-5.677-3.733-9.784C112.622 5.322 100.155 4.512 85.466 8.464zM125.088 25.336c4.646-5.594 9.915-8.012 15.557-3.422 3.039 2.473 5.411 7.471 7.541 12.139 0.311 0.68 1.049 1.718 1.128 2.47 -0.023-0.226-3.622-5.88-3.745-6.071C137.46 18.09 132.274 18.675 125.088 25.336zM128.878 28.23c2.147-0.928 5.885-2.564 10.627 3.72 8.927 11.829 8.434 30.24 9.228 31.829 0 0-2.488-11.189-5.874-20.503C140.502 36.333 136.774 24.89 128.878 28.23zM129.505 0.941c-5.084 7.857-4.512 12.572-4.862 14.069C124.643 10.098 124.247 7.338 129.505 0.941zM51.946 19.75C56.418 12.484 62.261 5.563 69.609 1.06c8.727-4.957 20.542-5.78 22.963-5.192 -0.413-0.1-1.087 0.085-1.501 0.125C79.942-2.928 67.39 4.184 60.268 10.735 57.229 13.53 54.565 16.566 51.946 19.75zM84.603 10.169c-10.324 3.203-16.542 11.63-21.404 21.625C54.049 50.6 52.301 58.256 50.5 65.223 50.759 64.223 56.146 16.17 84.603 10.169zM22.081 63.668c-3.561 8.263 7.553 11.926 16.005 5.157 1.625-1.303 3.44-3.105 4.366-5.016C34.34 80.548 16.562 73.076 22.081 63.668zM19.685 76.354c3.221 6.726 11.029 8.173 17.526 5.532C47.338 77.77 48.468 69.088 49.138 67.6c-0.467 1.039-0.135 3.909-2.753 8.552C39.323 88.671 23.116 86.441 19.685 76.354zM151.572 46.991c5.011 7.583 12.652 33.006 27.642 15.851 -1.259 1.44-7.862 12.561-17.513 4.278 -2.713-2.719-4.492-6.374-6.011-9.85C154.922 55.511 151.572 46.991 151.572 46.991z" fill="#5c3d2e" stroke-width="none" opacity="1" stroke="none" class="FsrPXEMD_63"></path><path id="SvgjsPath4096" d="M11.021 72.976c-0.083-1.398-0.053-2.837 0.098-4.307 0.713-7.312 4.967-12.225 10.584-12.225 2.024 0 4.145 0.678 6.218 1.957C18.393 55.373 12.423 63.637 11.021 72.976zM26.458 88.002c0.412 0.124 0.996 0.163 1.375 0.362 -1.165-0.611-2.362-1.095-3.475-1.823 -8.705-5.689-9.406-16.603-5.602-22.126 2-2.904 4.856-4.222 8.06-5.354C10.56 60.979 8.307 82.551 26.458 88.002zM68.477 36.558c8.522-15.251 18.99-26.346 36.584-25.088 8.769 0.627 12.573 5.472 13.573 6.249 -0.695-0.54-1.208-1.363-1.875-1.952C106 6.247 83.032 6.989 67.955 31.316 53.86 54.056 59.573 79.009 36.972 88.124 58.752 80.897 55.694 59.44 68.477 36.558zM140.555 15.934c4.046 2.542 6.225 7.406 8.431 11.449 3.468 6.355 11.339 20.026 18.525 19.247 -0.817 0.088-2.025-0.526-2.74-0.868 -6.921-3.315-10.014-14.387-13.951-20.79 -7.076-11.503-13.41-15.536-23.121-6.073C131.361 16.098 136.013 13.079 140.555 15.934zM150.674 55.099c0.313 0 1.294 3.863 1.411 4.243 3.23 10.488 5.633 20.354 13.769 24.604 3.326 1.738 7.543 1.937 11.065 0.615 -1.68 0.63-6.101 0.697-9.473-1.113C159.407 79 154.645 62.505 150.674 55.099 150.673 55.099 151.021 55.748 150.674 55.099zM162.796 64.039c8.201 8.268 16.567-2.15 16.567-2.15 -0.07-0.044-1.289 0.962-1.435 1.061 -5.791 3.958-11.011 5.188-19.353-9.521 -1.483-2.614-2.706-5.6-4.612-7.941C156.498 50.831 158.454 59.661 162.796 64.039zM160.279 89.302c9.286 3.633 14.87 4.469 17.569 14.461 0.243 0.9 0.716 2.036 0.731 2.972 -0.015-0.868-0.262-1.837-0.415-2.689 -2.922-16.191-16.892-13.159-24.917-22.424 -7.583-8.756-6.702-24.363-14.525-44.845C147.298 66.178 140.782 81.67 160.279 89.302zM72.029-3.178c1.241-1.198 3.136-1.921 4.725-2.482 7.571-2.674 15.332-1.807 21.078-1.52 13.311 0.664 19.81 4.694 25.242 10.029C109.762-14.638 80.875-11.717 72.029-3.178zM44.67 22.597c-1.168 2.621-2.494 5.509-3.051 8.347 0.083-0.421 0.374-0.872 0.547-1.259 2.896-6.466 5.574-10.3 9.528-15.151 3.799-5.568 9.38-11.069 15.787-13.439C59.604 3.042 50.129 10.354 44.67 22.597zM39.039 55.777c-0.198 1.042-0.562 2.207-0.573 3.274 0.009-0.869 0.568-1.976 0.821-2.793 2.163-7.005 3.842-10.827 6.375-17.01 2.431-5.937 3.638-11.355 10.621-20.705C45.945 29.388 41.813 41.125 39.039 55.777zM55.375 27.942c-2.789 4.838-6.141 16.149-6.712 20.02 0.157-1.067 2.891-7.599 3.657-9.29 1.558-3.547 3.591-6.816 5.289-10.283 6.162-12.574 12.357-15.401 14.494-16.916C65.062 14.781 60.126 19.601 55.375 27.942zM32.739 77.635c3.527 0.049 6.748-1.36 9.404-3.594 4.966-4.177 5.505-15.654 5.311-16.667 0.115 0.6-0.32 1.634-0.458 2.207 -2.021 8.361-5.425 11.157-6.411 12.335 -5.188 6.198-12.555 4.282-16.445 4.018C26.818 76.805 29.872 77.932 32.739 77.635zM135.581 7.312c2.286-0.523 5.451-1.355 8.763 0.376 0.767 0.4 1.354 0.956 2.052 1.447 -0.68-0.478-1.141-1.345-1.83-1.865 -4.273-3.233-12.625-4.116-18.211 7.018C128.618 11.019 131.579 8.227 135.581 7.312zM141.364 31.847c5.162 8.297 6.934 15.202 6.99 16.202 -0.257-4.489-2.794-13.511-5.681-17.594 -4.828-6.831-10.648-9.3-16.343-2.971C132.43 21.999 136.994 24.823 141.364 31.847zM115.443 7.317c4.175 3.956 6.33 6.555 8.45 11.981 0.154 0.395 0.785 1.475 0.709 1.904 0.18-1-2.36-12.5-8.289-16.704 -5.316-3.771-11.695-5.085-18.12-4.544C104.688 0.582 110.647 2.773 115.443 7.317zM26.531 114.318c0.908 3.285 3.005 5.68 5.192 8.166 -2.104-2.392-3.806-5.666-4.187-8.842 -1.254-10.454 14.183-19.624 18.236-22.463C35.697 96.374 23.477 103.265 26.531 114.318zM159 121.284c0.902-2.707 1.123-5.713 0.253-8.457 -1.509-4.762-10.313-12.876-13.038-18.543 2.083 9.288 12.847 11.595 12.382 22.561 -0.573 13.472-20.439 13.494-21.831 25.208 -0.852 7.131 5.628 15.771-4.449 21.886 -2.313 1.404-4.846 2.436-6.994 4.104 -1.688 1.312-2.598 2.547-1.235 1.572 6.083-4.354 11.355-5.69 14.86-9.83 5.911-6.979-2.328-15.025 2.204-22.31C144.34 132.352 155.849 128.633 159 121.284 160.102 117.979 157.008 125.932 159 121.284z" fill="#7a6155" stroke-width="none" opacity="1" stroke="none" class="FsrPXEMD_64"></path><path id="SvgjsPath4097" d="M173.609 87.849c5.387-0.243 8.898-3.05 9.87-9.46 -3.175 4.882-8.078 5.779-11.181 4.17 11.266-8.857 8.878-24.411 1.141-35.03 0.742-3.228 0.077-6.223-4.45-8.89 2.911 2.471 1.497 7.196-1.66 6.74 -4.094-36.541-26.934-49.917-43.39-45.29 -13.518-9.722-28.565-14.841-45.87-10.29 -34.667 9.075-43.87 39.112-48.83 69.36 -2.077-1.411-4.948-3.106-7.42-3.13 -6.215-0.062-10.224 5.815-11.05 11.39 -8.445 12.359 0.59 28.023 14.71 26.25 -16.989 15.276 1.356 38.655 15.81 30.931 2.886-1.545 5.02-4.014 6-6.07 -4.84 6.229-13.562 0.649-13.23-5.819 0.458-8.869 13.948-13.878 20.28-20.321 -2.623 5.241-18.354 13.693-12.89 23.1 0.005 0 0.197 0.315 0.2 0.32 -2.039-12.234 16.625-11.175 18.2-31.201 11.19-20.805 16.276-50.683 34.67-60.46 10.764-5.729 23.353-3.221 28.26 11.44 12.934-7.735 13.381 35.532 13.93 38.91 0.96 6.084 4.058 11.426 8.271 15.91 2.857 13.654 9.712 13.542 12.34 21.32 0.77 2.29 0.88 4.98 0.319 7.32 -2.92 12.169-24.624 10.664-21.47 27.59 0.858 4.641 3.469 11.16-2.5 15.92 -3.733 2.997-8.958 4.384-11.45 8.729 9.444-7.482 20.484-8.248 19.74-19.079 1.473 3.192 1.471 5.439-0.27 8.369 0.026-0.029 0.779-0.87 0.779-0.909 6.333-7.552-4.379-11.542 2.33-20.29 5.887-7.674 30.81-16.702 25.37-30.301 0.769 1.268 1.858 3.806 2.29 5.04 -0.467 3.046-2.945 6.55-4.96 8.811 2.138-0.488 5.975-1.001 9.36-3.101C188.461 112.611 188.531 97.843 173.609 87.849zM17.099 88.099c-5.549-2.098-9.671-11.194-6.64-18.01C10.096 76.51 12.36 83.723 17.099 88.099zM10.679 67.989c-0.08 0.52-0.14 1.05-0.18 1.58 -3.683 6.71-0.19 17.072 7.2 19.07 3.015 2.597 6.918 4.146 10.19 4.51C12.352 96.056 3.486 80.156 10.679 67.989zM43.319 108.039c-1.445 2.091-2.427 4.432-1.96 6.921 -4.132-9.234 10.863-16.337 13.48-23.091 2.703-2.825 3.257-3.958 4.72-6.72C57.729 99.98 48.978 99.804 43.319 108.039zM56.499 88.689c-6.028 8.513-19.968 12.038-22.73 22 -1.855 6.634 6.043 14.762 12.73 8.88 -12.518 18.248-39.865-8.311-20.64-25.95 0.76-0.11 1.51-0.26 2.24-0.45 9.674 1.281 22.187-2.964 31.63-14.32 0.01 0 0.02-0.01 0.02-0.02 2.33-2.8 4.37-5.87 6.14-9.05C63.784 75.512 59.826 84.015 56.499 88.689zM123.419 169.979c3.541-4.132 8.822-4.794 12.24-8.59 5.546-6.178-0.225-14.516 1.45-20.59 2.91-10.792 21.6-10.715 21.6-24.58 -0.088-11.373-10.232-11.034-13.6-25.661 4.459 4.709 9.038 7.344 13.899 9.11 1.941 2.641 5.329 10.15 2.04 14.601 1.165-3.166 0.117-7.266-1.609-9.561 -2.066-2.728-3.826-3.043-5.681-4.15 6.864 8.566 6.44 15.63 6.44 15.63 0 17.419-23.907 12.546-20.25 30.23 0.196 1 0.624 2.692 0.89 4.09 -0.01-0.01-0.029-0.021-0.05-0.03 0.021 0.01 0.03 0.021 0.05 0.04C142.928 162.06 132.769 163.011 123.419 169.979zM161.739 124.229c-6.924 6.401-17.294 8.011-21.15 18.88 -0.306-10.538 13.433-10.289 18.5-19.979 1.69-3.222 1.953-7.32 1.601-8.061 0-2.538-1.591-7.867-6.271-13.88 7.516 4.415 7.361 11.318 6.431 13.481 2.209-1.546 3.365-7.719-0.98-14.281C168.039 107.914 169.85 116.119 161.739 124.229zM168.899 106.919c2.592 3.737 2.784 9.406-4.61 16.801 -9.573 8.647-26.357 12.809-21.439 26.29 0.885 2.365 2.672 4.772 0.05 8.72 0.597-1.519 0.777-3.598-0.96-6.86 -0.248-2.982-1.139-5.604-1.33-8.21 3.622-12.24 18.049-12.624 24.49-22.229 7.605-11.455-4.923-20.591-5.601-21.591 2.891 1.01 13.438 3.935 13.07 13.161C171.748 110.289 169.995 107.801 168.899 106.919zM176.149 119.729c-3.326 2.004-7.141 2.506-8.141 2.86 3.398-4.015 6.219-8.195 4.61-13.23 -3.758-11.723-14.523-6.502-26.75-19.93 -0.112-0.122-1.376-1.544-1.43-1.68 -7.846-9.677-6.185-15.976-7.891-29.21 -1.295-10.17-4.581-28.055-13.72-23.38 -2.851-9.242-9.671-15.153-19.9-14.17 -20.827 2.012-28.627 28.2-34.56 40.92 0 0.01 0 0.02-0.01 0.03 -20.624 44.127-59.998 34.618-57.14 6.74 1.021-10.465 9.459-15.968 18.26-9.08 7.36-57.481 50.768-88.344 94.45-59.08 14.854-4.919 37.499 9.926 42.96 44.76 -2.972-0.829-6.056-5.883-6.72-8.19 0.49 1.76 1.42 3.45 2.44 4.95 5.747 8.061 10.12 1.48 7.399-2.47 2.901 2.632 3.636 3.35 3.19 7.63 0.01 0.03 0.01 0.05-0.01 0.08 5.651 6.941 11.34 25.178-1.101 35.17h-0.01c-0.08 0.07-0.17 0.14-0.25 0.2 1.095 0.924 6.884 3.011 11.24-3.19 -0.965 5.104-5.571 8.12-10.17 8.12C188.649 98.474 186.91 113.239 176.149 119.729z" fill="#3d2012" stroke-width="none" opacity="1" stroke="none" class="FsrPXEMD_65"></path></g><g id="svga-group-glasses-single"><path id="SvgjsPath4083" d="M148.74 83.98c-0.07 5.17-2.36 10.62-5.3 14.98 -2.86 4.24-10.31 5.75-15.82 5.75 -4.5 0-8.51-0.92-11.02-2.53 -4.73-3.04-9.81-10.61-10.93-17.83C115.84 78.24 136.81 78.24 148.74 83.98zM51.26 83.28c-0.14 5.38 2.23 11.13 5.3 15.68 2.86 4.24 10.31 5.75 15.82 5.75 4.5 0 8.51-0.92 11.02-2.53 4.59-2.95 9.5-10.16 10.81-17.18C83.4 78.66 62.6 77.97 51.26 83.28z" fill="#ffffff" stroke-width="none" opacity="0.2" class="FsrPXEMD_66"></path><path id="SvgjsPath4084" d="M148.74 83.98c-11.93-5.73-32.9-5.74-43.06 0.36 -0.17-1.1-0.25-2.19-0.23-3.26 0.22-8.25 12.02-11.18 22.06-11.18 7.08 0 15.44 1.47 18.14 4.74C147.91 77.39 148.79 80.62 148.74 83.98zM72.49 69.9c-7.08 0-15.44 1.47-18.14 4.74 -2.1 2.55-3.01 5.53-3.09 8.64 11.35-5.31 32.14-4.62 42.94 1.71 0.25-1.32 0.38-2.63 0.34-3.91C94.32 72.83 82.52 69.9 72.49 69.9z" fill="#ffffff" stroke-width="none" opacity="0.4" class="FsrPXEMD_67"></path><path id="SvgjsPath4085" d="M154.48 72.86c-0.6-2.41-28.01-7.28-42.24-2.39 -3.44 1.18-5.82 2.23-7.24 3.72l0-0.02c-0.5 0.88-1.75 1.18-2.64 0.85 -1.6-0.61-3.22-0.58-4.72 0 -0.88 0.34-2.14 0.03-2.64-0.85l0 0.02c-1.42-1.49-3.79-2.53-7.24-3.72 -14.23-4.89-41.64-0.01-42.24 2.39 -0.23 0.95-0.54 6.06-0.52 7.89 0.02 1.83 1.16 1.69 2.87 2.49 0.66 0.31 2.04 2.67 2.17 3.64 0.63 4.54 2.44 8.75 5.26 12.93 4.82 7.14 21.71 8.27 28.91 3.64 4.98-3.2 10.14-10.73 11.51-18.22 0.27-1.49 0.52-2.65 0.71-3.65l0.01 0.05c0.36-1.23 1.97-1.83 3.57-1.86 1.6 0.03 3.21 0.63 3.57 1.86l0.01-0.05c0.18 1 0.44 2.16 0.71 3.65 1.37 7.49 6.53 15.02 11.51 18.22 7.2 4.63 24.09 3.5 28.91-3.64 2.82-4.18 4.63-8.39 5.26-12.93 0.13-0.98 1.51-3.34 2.17-3.64 1.71-0.8 2.86-0.65 2.87-2.49C155.02 78.92 154.71 73.8 154.48 72.86zM83.12 101.75c-6.38 4.1-22.02 3.04-26.15-3.07 -4.7-6.98-7.82-16.94-2.24-23.72 5.38-6.53 38.94-7.32 39.31 6.13C94.26 88.99 88.46 98.32 83.12 101.75zM143.03 98.68c-4.13 6.12-19.77 7.17-26.15 3.07 -5.34-3.43-11.14-12.76-10.92-20.66 0.37-13.45 33.93-12.66 39.31-6.13C150.85 81.73 147.73 91.7 143.03 98.68z" fill="#26120b" stroke-width="none" opacity="1" class="FsrPXEMD_68"></path><path id="SvgjsPath4086" d="M45.37 73.94c0.05-0.5 0.1-0.89 0.15-1.09 0.6-2.41 28.01-7.28 42.24-2.39 3.44 1.18 5.82 2.23 7.24 3.72l0-0.02C95 74.15 73 62.54 45.37 73.94zM153.92 82.5c0.67-0.3 1.07-0.7 1.08-1.77 0.02-1.82-0.29-6.94-0.52-7.89 -0.6-2.41-28.01-7.28-42.24-2.39 -3.28 1.13-5.59 2.14-7.03 3.52 7.52-5.95 38.17-7.14 46.39 1.02C153.3 76.69 153.84 79.91 153.92 82.5z" fill="#351d15" stroke-width="none" opacity="1" class="FsrPXEMD_69"></path></g></g></g><path id="SvgjsRect1033" width="200" height="15" fill="#ecf0f1" opacity="0.5" style="display:none;" d="M0 185 L200 185 L200 200 L0 200 Z" class="FsrPXEMD_70"></path><text id="SvgjsText1034" font-family="&quot;Roboto&quot;, &quot;Helvetica Neue&quot;, Helvetica, Arial, sans-serif" style="font-size:0.84em;font-family:&quot;Roboto&quot;, &quot;Helvetica Neue&quot;, Helvetica, Arial, sans-serif;text-anchor:middle;font-weight:400;display:none;" font-size="0.84em" text-anchor="middle" font-weight="400" fill="#000000" x="100" y="185"><tspan id="SvgjsTspan1035" dy="1.2em" x="100" style="font-size:0.84em;font-family:&quot;Roboto&quot;, &quot;Helvetica Neue&quot;, Helvetica, Arial, sans-serif;text-anchor:middle;font-weight:400;">Created on AvatarMaker.com</tspan></text></g><defs id="SvgjsDefs1001"><radialGradient id="SvgjsRadialGradient2754" cx="100" cy="113" r="40" gradientUnits="userSpaceOnUse" class="svga-on-canvas-facehighlight-gradient-single-0"><stop id="SvgjsStop2755" stop-opacity="0.5" stop-color="#f8d3b8" offset="0"></stop><stop id="SvgjsStop2756" stop-opacity="0" stop-color="#e9b995" offset="0.9"></stop></radialGradient><radialGradient id="SvgjsRadialGradient2758" cx="100" cy="57" r="36" gradientUnits="userSpaceOnUse" class="svga-on-canvas-facehighlight-gradient-single-1"><stop id="SvgjsStop2759" stop-opacity="0.5" stop-color="#f8d3b8" offset="0"></stop><stop id="SvgjsStop2760" stop-opacity="0" stop-color="#e9b995" offset="0.9"></stop></radialGradient><radialGradient id="SvgjsRadialGradient3847" cx="100" cy="100" r="150" gradientUnits="userSpaceOnUse" class="svga-on-canvas-backs-gradient-single-1"><stop id="SvgjsStop3848" stop-opacity="0" stop-color="#ecf0f1" offset="0"></stop><stop id="SvgjsStop3849" stop-opacity="1" stop-color="#c6dce2" offset="0.2"></stop><stop id="SvgjsStop3850" stop-opacity="0" stop-color="#c6dce2" offset="1"></stop></radialGradient><linearGradient id="SvgjsLinearGradient3861" x1="99.98" y1="171.27" x2="99.98" y2="136.351" gradientUnits="userSpaceOnUse" class="svga-on-canvas-chinshadow-gradient-single-0"><stop id="SvgjsStop3862" stop-opacity="0.8" stop-color="#daa075" offset="0"></stop><stop id="SvgjsStop3863" stop-opacity="1" stop-color="#bb7440" offset="0.7"></stop></linearGradient><linearGradient id="SvgjsLinearGradient3873" x1="100" y1="141" x2="100" y2="138" gradientUnits="userSpaceOnUse" class="svga-on-canvas-mouth-gradient-single-0"><stop id="SvgjsStop3874" stop-opacity="1" stop-color="#e1ac85" offset="0.1"></stop><stop id="SvgjsStop3875" stop-opacity="1" stop-color="#daa075" offset="1"></stop></linearGradient><radialGradient id="SvgjsRadialGradient3916" cx="125.187" cy="87.442" r="12.841" gradientTransform="matrix(-1.0592 3.999999e-004 -4.000000e-004 1.0589 206.5114 -6.1261)" gradientUnits="userSpaceOnUse" class="svga-on-canvas-eyesback-gradient-left-0"><stop id="SvgjsStop3917" stop-opacity="1" stop-color="#ffffff" offset="0"></stop><stop id="SvgjsStop3918" stop-opacity="1" stop-color="#fdfefe" offset="0.544"></stop><stop id="SvgjsStop3919" stop-opacity="1" stop-color="#f6f8f9" offset="0.74"></stop><stop id="SvgjsStop3920" stop-opacity="1" stop-color="#eaeff2" offset="0.879"></stop><stop id="SvgjsStop3921" stop-opacity="1" stop-color="#d9e3e8" offset="0.992"></stop><stop id="SvgjsStop3922" stop-opacity="1" stop-color="#d8e2e7" offset="1"></stop></radialGradient><radialGradient id="SvgjsRadialGradient3924" cx="125.187" cy="87.442" r="12.841" gradientTransform="matrix(1.0592 4.000000e-004 4.000000e-004 1.0589 -6.5114 -6.1261)" gradientUnits="userSpaceOnUse" class="svga-on-canvas-eyesback-gradient-right-0"><stop id="SvgjsStop3925" stop-opacity="1" stop-color="#ffffff" offset="0"></stop><stop id="SvgjsStop3926" stop-opacity="1" stop-color="#fdfefe" offset="0.544"></stop><stop id="SvgjsStop3927" stop-opacity="1" stop-color="#f6f8f9" offset="0.74"></stop><stop id="SvgjsStop3928" stop-opacity="1" stop-color="#eaeff2" offset="0.879"></stop><stop id="SvgjsStop3929" stop-opacity="1" stop-color="#d9e3e8" offset="0.992"></stop><stop id="SvgjsStop3930" stop-opacity="1" stop-color="#d8e2e7" offset="1"></stop></radialGradient><radialGradient id="SvgjsRadialGradient3932" cx="125.187" cy="87.442" r="12.841" gradientTransform="matrix(-1.0592 3.999999e-004 -4.000000e-004 1.0589 206.5114 -6.1261)" gradientUnits="userSpaceOnUse" class="svga-on-canvas-eyesfront-gradient-left-0"><stop id="SvgjsStop3933" stop-opacity="1" stop-color="#ffffff" offset="0"></stop><stop id="SvgjsStop3934" stop-opacity="1" stop-color="#fdfefe" offset="0.544"></stop><stop id="SvgjsStop3935" stop-opacity="1" stop-color="#f6f8f9" offset="0.74"></stop><stop id="SvgjsStop3936" stop-opacity="1" stop-color="#eaeff2" offset="0.879"></stop><stop id="SvgjsStop3937" stop-opacity="1" stop-color="#d9e3e8" offset="0.992"></stop><stop id="SvgjsStop3938" stop-opacity="1" stop-color="#d8e2e7" offset="1"></stop></radialGradient><radialGradient id="SvgjsRadialGradient3942" cx="123.519" cy="84.391" fx="136.103" fy="84.426" r="17.898" gradientTransform="matrix(0.9998 0.0208 0.0166 -0.7998 -48.4152 149.3183)" gradientUnits="userSpaceOnUse" class="svga-on-canvas-eyesfront-gradient-left-3"><stop id="SvgjsStop3943" stop-opacity="1" stop-color="#daa075" offset="0"></stop><stop id="SvgjsStop3944" stop-opacity="0.3" stop-color="#daa075" offset="0.7"></stop><stop id="SvgjsStop3945" stop-opacity="0" stop-color="#e9b995" offset="1"></stop></radialGradient><radialGradient id="SvgjsRadialGradient3947" cx="81.644" cy="80.739" r="21.259" gradientTransform="matrix(0.6987 -0.0371 0.0367 0.7092 13.8647 40.0943)" gradientUnits="userSpaceOnUse" class="svga-on-canvas-eyesfront-gradient-left-4"><stop id="SvgjsStop3948" stop-opacity="0" stop-color="#000000" offset="0.9"></stop><stop id="SvgjsStop3949" stop-opacity="0.3" stop-color="#000000" offset="1"></stop></radialGradient><radialGradient id="SvgjsRadialGradient3953" cx="125.187" cy="87.442" r="12.841" gradientTransform="matrix(1.0592 4.000000e-004 4.000000e-004 1.0589 -6.5114 -6.1261)" gradientUnits="userSpaceOnUse" class="svga-on-canvas-eyesfront-gradient-right-0"><stop id="SvgjsStop3954" stop-opacity="1" stop-color="#ffffff" offset="0"></stop><stop id="SvgjsStop3955" stop-opacity="1" stop-color="#fdfefe" offset="0.544"></stop><stop id="SvgjsStop3956" stop-opacity="1" stop-color="#f6f8f9" offset="0.74"></stop><stop id="SvgjsStop3957" stop-opacity="1" stop-color="#eaeff2" offset="0.879"></stop><stop id="SvgjsStop3958" stop-opacity="1" stop-color="#d9e3e8" offset="0.992"></stop><stop id="SvgjsStop3959" stop-opacity="1" stop-color="#d8e2e7" offset="1"></stop></radialGradient><radialGradient id="SvgjsRadialGradient3963" cx="123.519" cy="84.391" fx="136.103" fy="84.426" r="17.898" gradientTransform="matrix(-0.9998 0.0208 -0.0166 -0.7998 248.4152 149.3183)" gradientUnits="userSpaceOnUse" class="svga-on-canvas-eyesfront-gradient-right-3"><stop id="SvgjsStop3964" stop-opacity="1" stop-color="#daa075" offset="0"></stop><stop id="SvgjsStop3965" stop-opacity="0.3" stop-color="#daa075" offset="0.7"></stop><stop id="SvgjsStop3966" stop-opacity="0" stop-color="#e9b995" offset="1"></stop></radialGradient><radialGradient id="SvgjsRadialGradient3968" cx="81.644" cy="80.739" r="21.259" gradientTransform="matrix(-0.6987 -0.0371 -0.0367 0.7092 186.1353 40.0943)" gradientUnits="userSpaceOnUse" class="svga-on-canvas-eyesfront-gradient-right-4"><stop id="SvgjsStop3969" stop-opacity="0" stop-color="#000000" offset="0.9"></stop><stop id="SvgjsStop3970" stop-opacity="0.3" stop-color="#000000" offset="1"></stop></radialGradient><radialGradient id="SvgjsRadialGradient3975" cx="-558.588" cy="-490.918" r="84.646" gradientTransform="matrix(0.096 -0.0248 0.0245 0.0961 140.5478 120.3577)" gradientUnits="userSpaceOnUse" class="svga-on-canvas-eyesiris-gradient-left-1"><stop id="SvgjsStop3976" stop-opacity="0.8" stop-color="#ffffff" offset="0"></stop><stop id="SvgjsStop3977" stop-opacity="0" stop-color="#ffffff" offset="1"></stop></radialGradient><radialGradient id="SvgjsRadialGradient3979" cx="-565.337" cy="-492.691" r="84.644" gradientTransform="matrix(0.0991 8.856325e-004 -0.0011 0.0991 130.3774 136.3533)" gradientUnits="userSpaceOnUse" class="svga-on-canvas-eyesiris-gradient-left-2"><stop id="SvgjsStop3980" stop-opacity="0.8" stop-color="#ffffff" offset="0"></stop><stop id="SvgjsStop3981" stop-opacity="0" stop-color="#ffffff" offset="1"></stop></radialGradient><linearGradient id="SvgjsLinearGradient3985" x1="122.283" y1="93.047" x2="123.61" y2="91.466" gradientTransform="matrix(1 0 0 1 -52 0)" gradientUnits="userSpaceOnUse" class="svga-on-canvas-eyesiris-gradient-left-5"><stop id="SvgjsStop3986" stop-opacity="1" stop-color="#ffffff" offset="0"></stop><stop id="SvgjsStop3987" stop-opacity="0" stop-color="#ffffff" offset="1"></stop></linearGradient><linearGradient id="SvgjsLinearGradient3989" x1="127" y1="85" x2="125" y2="87" gradientTransform="matrix(1 0 0 1 -50 0)" gradientUnits="userSpaceOnUse" class="svga-on-canvas-eyesiris-gradient-left-6"><stop id="SvgjsStop3990" stop-opacity="1" stop-color="#ffffff" offset="0"></stop><stop id="SvgjsStop3991" stop-opacity="0" stop-color="#ffffff" offset="1"></stop></linearGradient><linearGradient id="SvgjsLinearGradient3993" x1="130" y1="81" x2="126" y2="85" gradientTransform="matrix(1 0 0 1 -50 0)" gradientUnits="userSpaceOnUse" class="svga-on-canvas-eyesiris-gradient-left-7"><stop id="SvgjsStop3994" stop-opacity="1" stop-color="#ffffff" offset="0"></stop><stop id="SvgjsStop3995" stop-opacity="0" stop-color="#ffffff" offset="1"></stop></linearGradient><radialGradient id="SvgjsRadialGradient3998" cx="-578.76" cy="-490.73" r="84.646" gradientTransform="matrix(0.096 -0.0248 0.0245 0.0961 192.4794 119.8404)" gradientUnits="userSpaceOnUse" class="svga-on-canvas-eyesiris-gradient-right-1"><stop id="SvgjsStop3999" stop-opacity="0.8" stop-color="#ffffff" offset="0"></stop><stop id="SvgjsStop4000" stop-opacity="0" stop-color="#ffffff" offset="1"></stop></radialGradient><radialGradient id="SvgjsRadialGradient4002" cx="-584.778" cy="-487.329" r="84.644" gradientTransform="matrix(0.0991 8.856325e-004 -0.0011 0.0991 182.3104 135.839)" gradientUnits="userSpaceOnUse" class="svga-on-canvas-eyesiris-gradient-right-2"><stop id="SvgjsStop4003" stop-opacity="0.8" stop-color="#ffffff" offset="0"></stop><stop id="SvgjsStop4004" stop-opacity="0" stop-color="#ffffff" offset="1"></stop></radialGradient><linearGradient id="SvgjsLinearGradient4008" x1="120.284" y1="93.047" x2="121.611" y2="91.467" gradientUnits="userSpaceOnUse" class="svga-on-canvas-eyesiris-gradient-right-5"><stop id="SvgjsStop4009" stop-opacity="1" stop-color="#ffffff" offset="0"></stop><stop id="SvgjsStop4010" stop-opacity="0" stop-color="#ffffff" offset="1"></stop></linearGradient><linearGradient id="SvgjsLinearGradient4012" x1="127" y1="85" x2="125" y2="87" gradientUnits="userSpaceOnUse" class="svga-on-canvas-eyesiris-gradient-right-6"><stop id="SvgjsStop4013" stop-opacity="1" stop-color="#ffffff" offset="0"></stop><stop id="SvgjsStop4014" stop-opacity="0" stop-color="#ffffff" offset="1"></stop></linearGradient><linearGradient id="SvgjsLinearGradient4016" x1="130" y1="81" x2="126" y2="85" gradientUnits="userSpaceOnUse" class="svga-on-canvas-eyesiris-gradient-right-7"><stop id="SvgjsStop4017" stop-opacity="1" stop-color="#ffffff" offset="0"></stop><stop id="SvgjsStop4018" stop-opacity="0" stop-color="#ffffff" offset="1"></stop></linearGradient></defs><style data-made-with="vivus-instant">.FsrPXEMD_0{stroke-dasharray:1000 1002;stroke-dashoffset:1001;animation:FsrPXEMD_draw_0 7200ms linear 0ms infinite,FsrPXEMD_fade 7200ms linear 0ms infinite;}.FsrPXEMD_1{stroke-dasharray:1493 1495;stroke-dashoffset:1494;animation:FsrPXEMD_draw_1 7200ms linear 0ms infinite,FsrPXEMD_fade 7200ms linear 0ms infinite;}.FsrPXEMD_2{stroke-dasharray:499 501;stroke-dashoffset:500;animation:FsrPXEMD_draw_2 7200ms linear 0ms infinite,FsrPXEMD_fade 7200ms linear 0ms infinite;}.FsrPXEMD_3{stroke-dasharray:565 567;stroke-dashoffset:566;animation:FsrPXEMD_draw_3 7200ms linear 0ms infinite,FsrPXEMD_fade 7200ms linear 0ms infinite;}.FsrPXEMD_4{stroke-dasharray:932 934;stroke-dashoffset:933;animation:FsrPXEMD_draw_4 7200ms linear 0ms infinite,FsrPXEMD_fade 7200ms linear 0ms infinite;}.FsrPXEMD_5{stroke-dasharray:1092 1094;stroke-dashoffset:1093;animation:FsrPXEMD_draw_5 7200ms linear 0ms infinite,FsrPXEMD_fade 7200ms linear 0ms infinite;}.FsrPXEMD_6{stroke-dasharray:543 545;stroke-dashoffset:544;animation:FsrPXEMD_draw_6 7200ms linear 0ms infinite,FsrPXEMD_fade 7200ms linear 0ms infinite;}.FsrPXEMD_7{stroke-dasharray:428 430;stroke-dashoffset:429;animation:FsrPXEMD_draw_7 7200ms linear 0ms infinite,FsrPXEMD_fade 7200ms linear 0ms infinite;}.FsrPXEMD_8{stroke-dasharray:195 197;stroke-dashoffset:196;animation:FsrPXEMD_draw_8 7200ms linear 0ms infinite,FsrPXEMD_fade 7200ms linear 0ms infinite;}.FsrPXEMD_9{stroke-dasharray:543 545;stroke-dashoffset:544;animation:FsrPXEMD_draw_9 7200ms linear 0ms infinite,FsrPXEMD_fade 7200ms linear 0ms infinite;}.FsrPXEMD_10{stroke-dasharray:145 147;stroke-dashoffset:146;animation:FsrPXEMD_draw_10 7200ms linear 0ms infinite,FsrPXEMD_fade 7200ms linear 0ms infinite;}.FsrPXEMD_11{stroke-dasharray:461 463;stroke-dashoffset:462;animation:FsrPXEMD_draw_11 7200ms linear 0ms infinite,FsrPXEMD_fade 7200ms linear 0ms infinite;}.FsrPXEMD_12{stroke-dasharray:465 467;stroke-dashoffset:466;animation:FsrPXEMD_draw_12 7200ms linear 0ms infinite,FsrPXEMD_fade 7200ms linear 0ms infinite;}.FsrPXEMD_13{stroke-dasharray:177 179;stroke-dashoffset:178;animation:FsrPXEMD_draw_13 7200ms linear 0ms infinite,FsrPXEMD_fade 7200ms linear 0ms infinite;}.FsrPXEMD_14{stroke-dasharray:1097 1099;stroke-dashoffset:1098;animation:FsrPXEMD_draw_14 7200ms linear 0ms infinite,FsrPXEMD_fade 7200ms linear 0ms infinite;}.FsrPXEMD_15{stroke-dasharray:99 101;stroke-dashoffset:100;animation:FsrPXEMD_draw_15 7200ms linear 0ms infinite,FsrPXEMD_fade 7200ms linear 0ms infinite;}.FsrPXEMD_16{stroke-dasharray:177 179;stroke-dashoffset:178;animation:FsrPXEMD_draw_16 7200ms linear 0ms infinite,FsrPXEMD_fade 7200ms linear 0ms infinite;}.FsrPXEMD_17{stroke-dasharray:99 101;stroke-dashoffset:100;animation:FsrPXEMD_draw_17 7200ms linear 0ms infinite,FsrPXEMD_fade 7200ms linear 0ms infinite;}.FsrPXEMD_18{stroke-dasharray:177 179;stroke-dashoffset:178;animation:FsrPXEMD_draw_18 7200ms linear 0ms infinite,FsrPXEMD_fade 7200ms linear 0ms infinite;}.FsrPXEMD_19{stroke-dasharray:440 442;stroke-dashoffset:441;animation:FsrPXEMD_draw_19 7200ms linear 0ms infinite,FsrPXEMD_fade 7200ms linear 0ms infinite;}.FsrPXEMD_20{stroke-dasharray:768 770;stroke-dashoffset:769;animation:FsrPXEMD_draw_20 7200ms linear 0ms infinite,FsrPXEMD_fade 7200ms linear 0ms infinite;}.FsrPXEMD_21{stroke-dasharray:440 442;stroke-dashoffset:441;animation:FsrPXEMD_draw_21 7200ms linear 0ms infinite,FsrPXEMD_fade 7200ms linear 0ms infinite;}.FsrPXEMD_22{stroke-dasharray:24 26;stroke-dashoffset:25;animation:FsrPXEMD_draw_22 7200ms linear 0ms infinite,FsrPXEMD_fade 7200ms linear 0ms infinite;}.FsrPXEMD_23{stroke-dasharray:59 61;stroke-dashoffset:60;animation:FsrPXEMD_draw_23 7200ms linear 0ms infinite,FsrPXEMD_fade 7200ms linear 0ms infinite;}.FsrPXEMD_24{stroke-dasharray:57 59;stroke-dashoffset:58;animation:FsrPXEMD_draw_24 7200ms linear 0ms infinite,FsrPXEMD_fade 7200ms linear 0ms infinite;}.FsrPXEMD_25{stroke-dasharray:77 79;stroke-dashoffset:78;animation:FsrPXEMD_draw_25 7200ms linear 0ms infinite,FsrPXEMD_fade 7200ms linear 0ms infinite;}.FsrPXEMD_26{stroke-dasharray:24 26;stroke-dashoffset:25;animation:FsrPXEMD_draw_26 7200ms linear 0ms infinite,FsrPXEMD_fade 7200ms linear 0ms infinite;}.FsrPXEMD_27{stroke-dasharray:70 72;stroke-dashoffset:71;animation:FsrPXEMD_draw_27 7200ms linear 0ms infinite,FsrPXEMD_fade 7200ms linear 0ms infinite;}.FsrPXEMD_28{stroke-dasharray:54 56;stroke-dashoffset:55;animation:FsrPXEMD_draw_28 7200ms linear 0ms infinite,FsrPXEMD_fade 7200ms linear 0ms infinite;}.FsrPXEMD_29{stroke-dasharray:100 102;stroke-dashoffset:101;animation:FsrPXEMD_draw_29 7200ms linear 0ms infinite,FsrPXEMD_fade 7200ms linear 0ms infinite;}.FsrPXEMD_30{stroke-dasharray:200 202;stroke-dashoffset:201;animation:FsrPXEMD_draw_30 7200ms linear 0ms infinite,FsrPXEMD_fade 7200ms linear 0ms infinite;}.FsrPXEMD_31{stroke-dasharray:153 155;stroke-dashoffset:154;animation:FsrPXEMD_draw_31 7200ms linear 0ms infinite,FsrPXEMD_fade 7200ms linear 0ms infinite;}.FsrPXEMD_32{stroke-dasharray:21 23;stroke-dashoffset:22;animation:FsrPXEMD_draw_32 7200ms linear 0ms infinite,FsrPXEMD_fade 7200ms linear 0ms infinite;}.FsrPXEMD_33{stroke-dasharray:10 12;stroke-dashoffset:11;animation:FsrPXEMD_draw_33 7200ms linear 0ms infinite,FsrPXEMD_fade 7200ms linear 0ms infinite;}.FsrPXEMD_34{stroke-dasharray:18 20;stroke-dashoffset:19;animation:FsrPXEMD_draw_34 7200ms linear 0ms infinite,FsrPXEMD_fade 7200ms linear 0ms infinite;}.FsrPXEMD_35{stroke-dasharray:207 209;stroke-dashoffset:208;animation:FsrPXEMD_draw_35 7200ms linear 0ms infinite,FsrPXEMD_fade 7200ms linear 0ms infinite;}.FsrPXEMD_36{stroke-dasharray:172 174;stroke-dashoffset:173;animation:FsrPXEMD_draw_36 7200ms linear 0ms infinite,FsrPXEMD_fade 7200ms linear 0ms infinite;}.FsrPXEMD_37{stroke-dasharray:70 72;stroke-dashoffset:71;animation:FsrPXEMD_draw_37 7200ms linear 0ms infinite,FsrPXEMD_fade 7200ms linear 0ms infinite;}.FsrPXEMD_38{stroke-dasharray:65 67;stroke-dashoffset:66;animation:FsrPXEMD_draw_38 7200ms linear 0ms infinite,FsrPXEMD_fade 7200ms linear 0ms infinite;}.FsrPXEMD_39{stroke-dasharray:171 173;stroke-dashoffset:172;animation:FsrPXEMD_draw_39 7200ms linear 0ms infinite,FsrPXEMD_fade 7200ms linear 0ms infinite;}.FsrPXEMD_40{stroke-dasharray:70 72;stroke-dashoffset:71;animation:FsrPXEMD_draw_40 7200ms linear 0ms infinite,FsrPXEMD_fade 7200ms linear 0ms infinite;}.FsrPXEMD_41{stroke-dasharray:54 56;stroke-dashoffset:55;animation:FsrPXEMD_draw_41 7200ms linear 0ms infinite,FsrPXEMD_fade 7200ms linear 0ms infinite;}.FsrPXEMD_42{stroke-dasharray:100 102;stroke-dashoffset:101;animation:FsrPXEMD_draw_42 7200ms linear 0ms infinite,FsrPXEMD_fade 7200ms linear 0ms infinite;}.FsrPXEMD_43{stroke-dasharray:200 202;stroke-dashoffset:201;animation:FsrPXEMD_draw_43 7200ms linear 0ms infinite,FsrPXEMD_fade 7200ms linear 0ms infinite;}.FsrPXEMD_44{stroke-dasharray:153 155;stroke-dashoffset:154;animation:FsrPXEMD_draw_44 7200ms linear 0ms infinite,FsrPXEMD_fade 7200ms linear 0ms infinite;}.FsrPXEMD_45{stroke-dasharray:21 23;stroke-dashoffset:22;animation:FsrPXEMD_draw_45 7200ms linear 0ms infinite,FsrPXEMD_fade 7200ms linear 0ms infinite;}.FsrPXEMD_46{stroke-dasharray:10 12;stroke-dashoffset:11;animation:FsrPXEMD_draw_46 7200ms linear 0ms infinite,FsrPXEMD_fade 7200ms linear 0ms infinite;}.FsrPXEMD_47{stroke-dasharray:18 20;stroke-dashoffset:19;animation:FsrPXEMD_draw_47 7200ms linear 0ms infinite,FsrPXEMD_fade 7200ms linear 0ms infinite;}.FsrPXEMD_48{stroke-dasharray:207 209;stroke-dashoffset:208;animation:FsrPXEMD_draw_48 7200ms linear 0ms infinite,FsrPXEMD_fade 7200ms linear 0ms infinite;}.FsrPXEMD_49{stroke-dasharray:172 174;stroke-dashoffset:173;animation:FsrPXEMD_draw_49 7200ms linear 0ms infinite,FsrPXEMD_fade 7200ms linear 0ms infinite;}.FsrPXEMD_50{stroke-dasharray:70 72;stroke-dashoffset:71;animation:FsrPXEMD_draw_50 7200ms linear 0ms infinite,FsrPXEMD_fade 7200ms linear 0ms infinite;}.FsrPXEMD_51{stroke-dasharray:65 67;stroke-dashoffset:66;animation:FsrPXEMD_draw_51 7200ms linear 0ms infinite,FsrPXEMD_fade 7200ms linear 0ms infinite;}.FsrPXEMD_52{stroke-dasharray:171 173;stroke-dashoffset:172;animation:FsrPXEMD_draw_52 7200ms linear 0ms infinite,FsrPXEMD_fade 7200ms linear 0ms infinite;}.FsrPXEMD_53{stroke-dasharray:254 256;stroke-dashoffset:255;animation:FsrPXEMD_draw_53 7200ms linear 0ms infinite,FsrPXEMD_fade 7200ms linear 0ms infinite;}.FsrPXEMD_54{stroke-dasharray:220 222;stroke-dashoffset:221;animation:FsrPXEMD_draw_54 7200ms linear 0ms infinite,FsrPXEMD_fade 7200ms linear 0ms infinite;}.FsrPXEMD_55{stroke-dasharray:89 91;stroke-dashoffset:90;animation:FsrPXEMD_draw_55 7200ms linear 0ms infinite,FsrPXEMD_fade 7200ms linear 0ms infinite;}.FsrPXEMD_56{stroke-dasharray:88 90;stroke-dashoffset:89;animation:FsrPXEMD_draw_56 7200ms linear 0ms infinite,FsrPXEMD_fade 7200ms linear 0ms infinite;}.FsrPXEMD_57{stroke-dasharray:80 82;stroke-dashoffset:81;animation:FsrPXEMD_draw_57 7200ms linear 0ms infinite,FsrPXEMD_fade 7200ms linear 0ms infinite;}.FsrPXEMD_58{stroke-dasharray:44 46;stroke-dashoffset:45;animation:FsrPXEMD_draw_58 7200ms linear 0ms infinite,FsrPXEMD_fade 7200ms linear 0ms infinite;}.FsrPXEMD_59{stroke-dasharray:10 12;stroke-dashoffset:11;animation:FsrPXEMD_draw_59 7200ms linear 0ms infinite,FsrPXEMD_fade 7200ms linear 0ms infinite;}.FsrPXEMD_60{stroke-dasharray:544 546;stroke-dashoffset:545;animation:FsrPXEMD_draw_60 7200ms linear 0ms infinite,FsrPXEMD_fade 7200ms linear 0ms infinite;}.FsrPXEMD_61{stroke-dasharray:1394 1396;stroke-dashoffset:1395;animation:FsrPXEMD_draw_61 7200ms linear 0ms infinite,FsrPXEMD_fade 7200ms linear 0ms infinite;}.FsrPXEMD_62{stroke-dasharray:103 105;stroke-dashoffset:104;animation:FsrPXEMD_draw_62 7200ms linear 0ms infinite,FsrPXEMD_fade 7200ms linear 0ms infinite;}.FsrPXEMD_63{stroke-dasharray:2237 2239;stroke-dashoffset:2238;animation:FsrPXEMD_draw_63 7200ms linear 0ms infinite,FsrPXEMD_fade 7200ms linear 0ms infinite;}.FsrPXEMD_64{stroke-dasharray:1764 1766;stroke-dashoffset:1765;animation:FsrPXEMD_draw_64 7200ms linear 0ms infinite,FsrPXEMD_fade 7200ms linear 0ms infinite;}.FsrPXEMD_65{stroke-dasharray:2560 2562;stroke-dashoffset:2561;animation:FsrPXEMD_draw_65 7200ms linear 0ms infinite,FsrPXEMD_fade 7200ms linear 0ms infinite;}.FsrPXEMD_66{stroke-dasharray:222 224;stroke-dashoffset:223;animation:FsrPXEMD_draw_66 7200ms linear 0ms infinite,FsrPXEMD_fade 7200ms linear 0ms infinite;}.FsrPXEMD_67{stroke-dasharray:208 210;stroke-dashoffset:209;animation:FsrPXEMD_draw_67 7200ms linear 0ms infinite,FsrPXEMD_fade 7200ms linear 0ms infinite;}.FsrPXEMD_68{stroke-dasharray:543 545;stroke-dashoffset:544;animation:FsrPXEMD_draw_68 7200ms linear 0ms infinite,FsrPXEMD_fade 7200ms linear 0ms infinite;}.FsrPXEMD_69{stroke-dasharray:222 224;stroke-dashoffset:223;animation:FsrPXEMD_draw_69 7200ms linear 0ms infinite,FsrPXEMD_fade 7200ms linear 0ms infinite;}.FsrPXEMD_70{stroke-dasharray:430 432;stroke-dashoffset:431;animation:FsrPXEMD_draw_70 7200ms linear 0ms infinite,FsrPXEMD_fade 7200ms linear 0ms infinite;}@keyframes FsrPXEMD_draw{100%{stroke-dashoffset:0;}}@keyframes FsrPXEMD_fade{0%{stroke-opacity:1;}94.44444444444444%{stroke-opacity:1;}100%{stroke-opacity:0;}}@keyframes FsrPXEMD_draw_0{11.11111111111111%{stroke-dashoffset: 1001}38.88888888888889%{ stroke-dashoffset: 0;}100%{ stroke-dashoffset: 0;}}@keyframes FsrPXEMD_draw_1{11.30952380952381%{stroke-dashoffset: 1494}39.08730158730159%{ stroke-dashoffset: 0;}100%{ stroke-dashoffset: 0;}}@keyframes FsrPXEMD_draw_2{11.507936507936508%{stroke-dashoffset: 500}39.285714285714285%{ stroke-dashoffset: 0;}100%{ stroke-dashoffset: 0;}}@keyframes FsrPXEMD_draw_3{11.706349206349206%{stroke-dashoffset: 566}39.48412698412699%{ stroke-dashoffset: 0;}100%{ stroke-dashoffset: 0;}}@keyframes FsrPXEMD_draw_4{11.904761904761903%{stroke-dashoffset: 933}39.682539682539684%{ stroke-dashoffset: 0;}100%{ stroke-dashoffset: 0;}}@keyframes FsrPXEMD_draw_5{12.103174603174603%{stroke-dashoffset: 1093}39.88095238095239%{ stroke-dashoffset: 0;}100%{ stroke-dashoffset: 0;}}@keyframes FsrPXEMD_draw_6{12.301587301587302%{stroke-dashoffset: 544}40.07936507936508%{ stroke-dashoffset: 0;}100%{ stroke-dashoffset: 0;}}@keyframes FsrPXEMD_draw_7{12.5%{stroke-dashoffset: 429}40.27777777777778%{ stroke-dashoffset: 0;}100%{ stroke-dashoffset: 0;}}@keyframes FsrPXEMD_draw_8{12.698412698412698%{stroke-dashoffset: 196}40.476190476190474%{ stroke-dashoffset: 0;}100%{ stroke-dashoffset: 0;}}@keyframes FsrPXEMD_draw_9{12.896825396825395%{stroke-dashoffset: 544}40.67460317460318%{ stroke-dashoffset: 0;}100%{ stroke-dashoffset: 0;}}@keyframes FsrPXEMD_draw_10{13.095238095238097%{stroke-dashoffset: 146}40.87301587301588%{ stroke-dashoffset: 0;}100%{ stroke-dashoffset: 0;}}@keyframes FsrPXEMD_draw_11{13.293650793650794%{stroke-dashoffset: 462}41.07142857142857%{ stroke-dashoffset: 0;}100%{ stroke-dashoffset: 0;}}@keyframes FsrPXEMD_draw_12{13.492063492063492%{stroke-dashoffset: 466}41.26984126984127%{ stroke-dashoffset: 0;}100%{ stroke-dashoffset: 0;}}@keyframes FsrPXEMD_draw_13{13.690476190476192%{stroke-dashoffset: 178}41.46825396825397%{ stroke-dashoffset: 0;}100%{ stroke-dashoffset: 0;}}@keyframes FsrPXEMD_draw_14{13.88888888888889%{stroke-dashoffset: 1098}41.66666666666667%{ stroke-dashoffset: 0;}100%{ stroke-dashoffset: 0;}}@keyframes FsrPXEMD_draw_15{14.087301587301587%{stroke-dashoffset: 100}41.86507936507937%{ stroke-dashoffset: 0;}100%{ stroke-dashoffset: 0;}}@keyframes FsrPXEMD_draw_16{14.285714285714288%{stroke-dashoffset: 178}42.06349206349206%{ stroke-dashoffset: 0;}100%{ stroke-dashoffset: 0;}}@keyframes FsrPXEMD_draw_17{14.484126984126986%{stroke-dashoffset: 100}42.261904761904766%{ stroke-dashoffset: 0;}100%{ stroke-dashoffset: 0;}}@keyframes FsrPXEMD_draw_18{14.682539682539684%{stroke-dashoffset: 178}42.46031746031746%{ stroke-dashoffset: 0;}100%{ stroke-dashoffset: 0;}}@keyframes FsrPXEMD_draw_19{14.880952380952383%{stroke-dashoffset: 441}42.658730158730165%{ stroke-dashoffset: 0;}100%{ stroke-dashoffset: 0;}}@keyframes FsrPXEMD_draw_20{15.07936507936508%{stroke-dashoffset: 769}42.85714285714286%{ stroke-dashoffset: 0;}100%{ stroke-dashoffset: 0;}}@keyframes FsrPXEMD_draw_21{15.277777777777779%{stroke-dashoffset: 441}43.05555555555556%{ stroke-dashoffset: 0;}100%{ stroke-dashoffset: 0;}}@keyframes FsrPXEMD_draw_22{15.476190476190474%{stroke-dashoffset: 25}43.25396825396825%{ stroke-dashoffset: 0;}100%{ stroke-dashoffset: 0;}}@keyframes FsrPXEMD_draw_23{15.674603174603178%{stroke-dashoffset: 60}43.45238095238095%{ stroke-dashoffset: 0;}100%{ stroke-dashoffset: 0;}}@keyframes FsrPXEMD_draw_24{15.873015873015872%{stroke-dashoffset: 58}43.65079365079366%{ stroke-dashoffset: 0;}100%{ stroke-dashoffset: 0;}}@keyframes FsrPXEMD_draw_25{16.07142857142857%{stroke-dashoffset: 78}43.84920634920634%{ stroke-dashoffset: 0;}100%{ stroke-dashoffset: 0;}}@keyframes FsrPXEMD_draw_26{16.26984126984127%{stroke-dashoffset: 25}44.04761904761905%{ stroke-dashoffset: 0;}100%{ stroke-dashoffset: 0;}}@keyframes FsrPXEMD_draw_27{16.46825396825397%{stroke-dashoffset: 71}44.24603174603175%{ stroke-dashoffset: 0;}100%{ stroke-dashoffset: 0;}}@keyframes FsrPXEMD_draw_28{16.666666666666664%{stroke-dashoffset: 55}44.44444444444444%{ stroke-dashoffset: 0;}100%{ stroke-dashoffset: 0;}}@keyframes FsrPXEMD_draw_29{16.865079365079364%{stroke-dashoffset: 101}44.64285714285714%{ stroke-dashoffset: 0;}100%{ stroke-dashoffset: 0;}}@keyframes FsrPXEMD_draw_30{17.063492063492063%{stroke-dashoffset: 201}44.841269841269835%{ stroke-dashoffset: 0;}100%{ stroke-dashoffset: 0;}}@keyframes FsrPXEMD_draw_31{17.261904761904763%{stroke-dashoffset: 154}45.03968253968254%{ stroke-dashoffset: 0;}100%{ stroke-dashoffset: 0;}}@keyframes FsrPXEMD_draw_32{17.46031746031746%{stroke-dashoffset: 22}45.238095238095234%{ stroke-dashoffset: 0;}100%{ stroke-dashoffset: 0;}}@keyframes FsrPXEMD_draw_33{17.658730158730158%{stroke-dashoffset: 11}45.43650793650794%{ stroke-dashoffset: 0;}100%{ stroke-dashoffset: 0;}}@keyframes FsrPXEMD_draw_34{17.857142857142858%{stroke-dashoffset: 19}45.63492063492063%{ stroke-dashoffset: 0;}100%{ stroke-dashoffset: 0;}}@keyframes FsrPXEMD_draw_35{18.055555555555554%{stroke-dashoffset: 208}45.83333333333333%{ stroke-dashoffset: 0;}100%{ stroke-dashoffset: 0;}}@keyframes FsrPXEMD_draw_36{18.253968253968253%{stroke-dashoffset: 173}46.03174603174603%{ stroke-dashoffset: 0;}100%{ stroke-dashoffset: 0;}}@keyframes FsrPXEMD_draw_37{18.45238095238095%{stroke-dashoffset: 71}46.23015873015873%{ stroke-dashoffset: 0;}100%{ stroke-dashoffset: 0;}}@keyframes FsrPXEMD_draw_38{18.650793650793652%{stroke-dashoffset: 66}46.42857142857143%{ stroke-dashoffset: 0;}100%{ stroke-dashoffset: 0;}}@keyframes FsrPXEMD_draw_39{18.84920634920635%{stroke-dashoffset: 172}46.62698412698413%{ stroke-dashoffset: 0;}100%{ stroke-dashoffset: 0;}}@keyframes FsrPXEMD_draw_40{19.04761904761905%{stroke-dashoffset: 71}46.82539682539682%{ stroke-dashoffset: 0;}100%{ stroke-dashoffset: 0;}}@keyframes FsrPXEMD_draw_41{19.246031746031747%{stroke-dashoffset: 55}47.023809523809526%{ stroke-dashoffset: 0;}100%{ stroke-dashoffset: 0;}}@keyframes FsrPXEMD_draw_42{19.444444444444446%{stroke-dashoffset: 101}47.22222222222222%{ stroke-dashoffset: 0;}100%{ stroke-dashoffset: 0;}}@keyframes FsrPXEMD_draw_43{19.642857142857142%{stroke-dashoffset: 201}47.42063492063492%{ stroke-dashoffset: 0;}100%{ stroke-dashoffset: 0;}}@keyframes FsrPXEMD_draw_44{19.841269841269842%{stroke-dashoffset: 154}47.61904761904761%{ stroke-dashoffset: 0;}100%{ stroke-dashoffset: 0;}}@keyframes FsrPXEMD_draw_45{20.03968253968254%{stroke-dashoffset: 22}47.817460317460316%{ stroke-dashoffset: 0;}100%{ stroke-dashoffset: 0;}}@keyframes FsrPXEMD_draw_46{20.23809523809524%{stroke-dashoffset: 11}48.01587301587302%{ stroke-dashoffset: 0;}100%{ stroke-dashoffset: 0;}}@keyframes FsrPXEMD_draw_47{20.43650793650794%{stroke-dashoffset: 19}48.214285714285715%{ stroke-dashoffset: 0;}100%{ stroke-dashoffset: 0;}}@keyframes FsrPXEMD_draw_48{20.634920634920636%{stroke-dashoffset: 208}48.41269841269841%{ stroke-dashoffset: 0;}100%{ stroke-dashoffset: 0;}}@keyframes FsrPXEMD_draw_49{20.833333333333336%{stroke-dashoffset: 173}48.61111111111111%{ stroke-dashoffset: 0;}100%{ stroke-dashoffset: 0;}}@keyframes FsrPXEMD_draw_50{21.03174603174603%{stroke-dashoffset: 71}48.80952380952381%{ stroke-dashoffset: 0;}100%{ stroke-dashoffset: 0;}}@keyframes FsrPXEMD_draw_51{21.23015873015873%{stroke-dashoffset: 66}49.007936507936506%{ stroke-dashoffset: 0;}100%{ stroke-dashoffset: 0;}}@keyframes FsrPXEMD_draw_52{21.42857142857143%{stroke-dashoffset: 172}49.20634920634921%{ stroke-dashoffset: 0;}100%{ stroke-dashoffset: 0;}}@keyframes FsrPXEMD_draw_53{21.62698412698413%{stroke-dashoffset: 255}49.404761904761905%{ stroke-dashoffset: 0;}100%{ stroke-dashoffset: 0;}}@keyframes FsrPXEMD_draw_54{21.82539682539683%{stroke-dashoffset: 221}49.60317460317461%{ stroke-dashoffset: 0;}100%{ stroke-dashoffset: 0;}}@keyframes FsrPXEMD_draw_55{22.023809523809526%{stroke-dashoffset: 90}49.801587301587304%{ stroke-dashoffset: 0;}100%{ stroke-dashoffset: 0;}}@keyframes FsrPXEMD_draw_56{22.22222222222222%{stroke-dashoffset: 89}50%{ stroke-dashoffset: 0;}100%{ stroke-dashoffset: 0;}}@keyframes FsrPXEMD_draw_57{22.420634920634917%{stroke-dashoffset: 81}50.198412698412696%{ stroke-dashoffset: 0;}100%{ stroke-dashoffset: 0;}}@keyframes FsrPXEMD_draw_58{22.61904761904762%{stroke-dashoffset: 45}50.39682539682539%{ stroke-dashoffset: 0;}100%{ stroke-dashoffset: 0;}}@keyframes FsrPXEMD_draw_59{22.817460317460316%{stroke-dashoffset: 11}50.5952380952381%{ stroke-dashoffset: 0;}100%{ stroke-dashoffset: 0;}}@keyframes FsrPXEMD_draw_60{23.015873015873016%{stroke-dashoffset: 545}50.79365079365079%{ stroke-dashoffset: 0;}100%{ stroke-dashoffset: 0;}}@keyframes FsrPXEMD_draw_61{23.214285714285715%{stroke-dashoffset: 1395}50.99206349206349%{ stroke-dashoffset: 0;}100%{ stroke-dashoffset: 0;}}@keyframes FsrPXEMD_draw_62{23.41269841269841%{stroke-dashoffset: 104}51.19047619047619%{ stroke-dashoffset: 0;}100%{ stroke-dashoffset: 0;}}@keyframes FsrPXEMD_draw_63{23.61111111111111%{stroke-dashoffset: 2238}51.388888888888886%{ stroke-dashoffset: 0;}100%{ stroke-dashoffset: 0;}}@keyframes FsrPXEMD_draw_64{23.809523809523807%{stroke-dashoffset: 1765}51.58730158730158%{ stroke-dashoffset: 0;}100%{ stroke-dashoffset: 0;}}@keyframes FsrPXEMD_draw_65{24.00793650793651%{stroke-dashoffset: 2561}51.78571428571428%{ stroke-dashoffset: 0;}100%{ stroke-dashoffset: 0;}}@keyframes FsrPXEMD_draw_66{24.206349206349206%{stroke-dashoffset: 223}51.98412698412699%{ stroke-dashoffset: 0;}100%{ stroke-dashoffset: 0;}}@keyframes FsrPXEMD_draw_67{24.404761904761905%{stroke-dashoffset: 209}52.182539682539684%{ stroke-dashoffset: 0;}100%{ stroke-dashoffset: 0;}}@keyframes FsrPXEMD_draw_68{24.603174603174605%{stroke-dashoffset: 544}52.38095238095239%{ stroke-dashoffset: 0;}100%{ stroke-dashoffset: 0;}}@keyframes FsrPXEMD_draw_69{24.801587301587304%{stroke-dashoffset: 223}52.57936507936508%{ stroke-dashoffset: 0;}100%{ stroke-dashoffset: 0;}}@keyframes FsrPXEMD_draw_70{25%{stroke-dashoffset: 431}52.77777777777778%{ stroke-dashoffset: 0;}100%{ stroke-dashoffset: 0;}}</style></svg>